<?xml version="1.0" encoding="utf-8"?>
<!-- Generator: Adobe Illustrator 25.4.1, SVG Export Plug-In . SVG Version: 6.00 Build 0)  -->
<svg version="1.1" id="Layer_1" xmlns="http://www.w3.org/2000/svg" xmlns:xlink="http://www.w3.org/1999/xlink" x="0px" y="0px"
	 viewBox="0 0 24 24" style="enable-background:new 0 0 24 24;" xml:space="preserve">
<style type="text/css">
	.st0{fill:#9B9B9B;}
</style>
<path class="st0" d="M13.3,8.6c0-0.5,0.1-0.9,0.3-1.3C13.6,7.1,13.7,7,13.8,7c0.4-0.2,0.9-0.3,1.4-0.3H16V4.2c-1-0.2-2-0.2-3-0.1
	c-0.4,0.1-0.8,0.2-1.1,0.5c-0.3,0.2-0.6,0.6-0.9,0.9c-0.1,0.2-0.3,0.5-0.4,0.8c0,0.1-0.1,0.2-0.1,0.3c-0.1,0.4-0.1,0.8-0.1,1.2
	c0,0.7,0,1.5,0,2.2v0.1H8V13h2.4v7h2.9v-7h2.2l0.4-2.9h-2.6V8.6z"/>
</svg>
