<?xml version="1.0" encoding="utf-8"?>
<!-- Generator: Adobe Illustrator 25.4.1, SVG Export Plug-In . SVG Version: 6.00 Build 0)  -->
<svg version="1.1" id="Layer_1" xmlns="http://www.w3.org/2000/svg" xmlns:xlink="http://www.w3.org/1999/xlink" x="0px" y="0px"
	 viewBox="0 0 24 24" style="enable-background:new 0 0 24 24;" xml:space="preserve">
<style type="text/css">
	.st0{fill:#202020;}
</style>
<path class="st0" d="M13.28,8.57c-0.04-0.46,0.07-0.92,0.3-1.32c0.07-0.11,0.16-0.2,0.26-0.27c0.43-0.25,0.94-0.35,1.43-0.28H16V4.2
	c-0.99-0.21-2-0.25-3-0.11c-0.41,0.08-0.8,0.25-1.14,0.49c-0.34,0.24-0.64,0.55-0.86,0.9c-0.15,0.25-0.28,0.51-0.38,0.79
	c0,0.11-0.07,0.22-0.1,0.33c-0.09,0.4-0.14,0.8-0.13,1.21c0,0.7,0,1.51,0,2.21v0.08H8V13h2.36v7h2.92v-7h2.22l0.4-2.92h-2.62V8.57z"
	/>
</svg>
