<?xml version="1.0" encoding="utf-8"?>
<!-- Generator: Adobe Illustrator 25.4.1, SVG Export Plug-In . SVG Version: 6.00 Build 0)  -->
<svg version="1.1" id="Layer_1" xmlns="http://www.w3.org/2000/svg" xmlns:xlink="http://www.w3.org/1999/xlink" x="0px" y="0px"
	 viewBox="0 0 24 24" style="enable-background:new 0 0 24 24;" xml:space="preserve">
<style type="text/css">
	.st0{fill:#202020;}
</style>
<path class="st0" d="M8.92,11.87c0-1.63,1.32-2.96,2.96-2.96c1.63,0,2.96,1.32,2.96,2.96c0,1.63-1.32,2.96-2.96,2.96
	S8.92,13.51,8.92,11.87z M7.32,11.87c0,2.52,2.04,4.56,4.56,4.56s4.56-2.04,4.56-4.56s-2.04-4.56-4.56-4.56
	C9.36,7.32,7.32,9.36,7.32,11.87z M15.54,7.14c0,0.59,0.48,1.06,1.06,1.06s1.06-0.48,1.06-1.06c0-0.59-0.48-1.06-1.06-1.06
	S15.54,6.55,15.54,7.14z M8.29,19.1c-0.87-0.04-1.33-0.18-1.65-0.31c-0.41-0.16-0.71-0.35-1.02-0.66c-0.31-0.31-0.5-0.61-0.66-1.02
	c-0.12-0.31-0.27-0.78-0.31-1.65c-0.04-0.94-0.05-1.22-0.05-3.59s0.01-2.65,0.05-3.59c0.04-0.86,0.18-1.33,0.31-1.65
	c0.16-0.41,0.35-0.71,0.66-1.02s0.61-0.5,1.02-0.66c0.31-0.12,0.78-0.27,1.65-0.31C9.22,4.61,9.5,4.6,11.87,4.6s2.65,0.01,3.59,0.05
	c0.86,0.04,1.33,0.18,1.65,0.31c0.41,0.16,0.71,0.35,1.02,0.66c0.31,0.31,0.5,0.61,0.66,1.02c0.12,0.31,0.27,0.78,0.31,1.65
	c0.04,0.94,0.05,1.22,0.05,3.59s-0.01,2.65-0.05,3.59c-0.04,0.87-0.18,1.34-0.31,1.65c-0.16,0.41-0.35,0.71-0.66,1.02
	c-0.31,0.31-0.61,0.5-1.02,0.66c-0.31,0.12-0.78,0.27-1.65,0.31c-0.94,0.04-1.22,0.05-3.59,0.05C9.5,19.15,9.22,19.14,8.29,19.1z
	 M8.21,3.05C7.27,3.1,6.63,3.25,6.06,3.47C5.48,3.69,4.98,4,4.49,4.49s-0.8,0.99-1.02,1.57C3.25,6.63,3.1,7.27,3.05,8.21
	C3.01,9.16,3,9.46,3,11.87s0.01,2.71,0.05,3.66c0.04,0.94,0.19,1.59,0.41,2.15c0.23,0.58,0.53,1.08,1.02,1.57s0.99,0.8,1.57,1.02
	c0.56,0.22,1.21,0.37,2.15,0.41c0.95,0.04,1.25,0.05,3.66,0.05s2.71-0.01,3.66-0.05c0.94-0.04,1.59-0.19,2.15-0.41
	c0.58-0.23,1.08-0.53,1.57-1.02s0.8-0.99,1.02-1.57c0.22-0.56,0.37-1.21,0.41-2.15c0.04-0.95,0.05-1.25,0.05-3.66
	s-0.01-2.71-0.05-3.66c-0.04-0.94-0.19-1.59-0.41-2.15c-0.23-0.58-0.53-1.08-1.02-1.57s-0.99-0.8-1.57-1.02
	c-0.56-0.22-1.21-0.37-2.15-0.41C14.59,3.01,14.28,3,11.87,3S9.16,3.01,8.21,3.05z"/>
</svg>
