<?xml version="1.0" encoding="utf-8"?>
<!-- Generator: Adobe Illustrator 25.4.1, SVG Export Plug-In . SVG Version: 6.00 Build 0)  -->
<svg version="1.1" id="Layer_1" xmlns="http://www.w3.org/2000/svg" xmlns:xlink="http://www.w3.org/1999/xlink" x="0px" y="0px"
	 viewBox="0 0 24 24" style="enable-background:new 0 0 24 24;" xml:space="preserve">
<style type="text/css">
	.st0{fill:#9B9B9B;}
</style>
<path class="st0" d="M8.9,11.9c0-1.6,1.3-3,3-3c1.6,0,3,1.3,3,3c0,1.6-1.3,3-3,3S8.9,13.5,8.9,11.9z M7.3,11.9c0,2.5,2,4.6,4.6,4.6
	s4.6-2,4.6-4.6s-2-4.6-4.6-4.6C9.4,7.3,7.3,9.4,7.3,11.9z M15.5,7.1c0,0.6,0.5,1.1,1.1,1.1s1.1-0.5,1.1-1.1c0-0.6-0.5-1.1-1.1-1.1
	S15.5,6.6,15.5,7.1z M8.3,19.1c-0.9,0-1.3-0.2-1.7-0.3c-0.4-0.2-0.7-0.4-1-0.7s-0.5-0.6-0.7-1c-0.1-0.3-0.3-0.8-0.3-1.6
	c0-0.9-0.1-1.2-0.1-3.6s0-2.6,0.1-3.6C4.7,7.4,4.8,7,5,6.6c0.2-0.4,0.3-0.7,0.7-1s0.6-0.5,1-0.7c0.3-0.1,0.8-0.3,1.7-0.3
	c0.9,0,1.2,0,3.6,0s2.7,0,3.6,0.1c0.9,0,1.3,0.2,1.7,0.3c0.4,0.2,0.7,0.3,1,0.7c0.3,0.3,0.5,0.6,0.7,1c0.1,0.3,0.3,0.8,0.3,1.7
	c0,0.9,0,1.2,0,3.6s0,2.7,0,3.6c0,0.9-0.2,1.3-0.3,1.7c-0.2,0.4-0.4,0.7-0.7,1c-0.3,0.3-0.6,0.5-1,0.7c-0.3,0.1-0.8,0.3-1.6,0.3
	c-0.9,0-1.2,0-3.6,0C9.5,19.1,9.2,19.1,8.3,19.1z M8.2,3c-0.9,0-1.6,0.2-2.2,0.4C5.5,3.7,5,4,4.5,4.5s-0.8,1-1,1.6
	C3.2,6.6,3.1,7.3,3,8.2c0,0.9,0,1.2,0,3.7s0,2.7,0,3.7c0,0.9,0.2,1.6,0.4,2.2c0.2,0.6,0.5,1.1,1,1.6s1,0.8,1.6,1
	c0.6,0.2,1.2,0.4,2.2,0.4c0.9,0,1.2,0,3.7,0s2.7,0,3.7,0c0.9,0,1.6-0.2,2.1-0.4c0.6-0.2,1.1-0.5,1.6-1s0.8-1,1-1.6
	c0.2-0.6,0.4-1.2,0.4-2.1c0-0.9,0-1.2,0-3.7s0-2.7,0-3.7c0-0.9-0.2-1.6-0.4-2.2c-0.2-0.6-0.5-1.1-1-1.6s-1-0.8-1.6-1
	c-0.6-0.2-1.2-0.4-2.1-0.4C14.6,3,14.3,3,11.9,3S9.2,3,8.2,3z"/>
</svg>
