<?xml version="1.0" encoding="utf-8"?>
<!-- Generator: Adobe Illustrator 25.4.1, SVG Export Plug-In . SVG Version: 6.00 Build 0)  -->
<svg version="1.1" id="Layer_1" xmlns="http://www.w3.org/2000/svg" xmlns:xlink="http://www.w3.org/1999/xlink" x="0px" y="0px"
	 viewBox="0 0 122.4 122.4" style="enable-background:new 0 0 122.4 122.4;" xml:space="preserve">
<style type="text/css">
	.st0{fill:#DC7F8E;}
	.st1{fill:#FFFFFF;}
	.st2{fill:#913E53;}
</style>
<g>
	<path class="st0" d="M61.2,122.4C27.4,122.4,0,94.9,0,61.2S27.4,0,61.2,0c33.7,0,61.2,27.4,61.2,61.2S94.9,122.4,61.2,122.4z
		 M61.2,2C28.5,2,2,28.5,2,61.2s26.5,59.2,59.2,59.2s59.2-26.6,59.2-59.2S93.8,2,61.2,2z"/>
</g>
<g>
	<circle class="st0" cx="61.2" cy="61.2" r="57.1"/>
</g>
<g>
	<path class="st1" d="M51.6,103.9l-1.2,6.1l-1.1-0.2l1-5l0,0l-1.6,0.6l0.2-1l1.7-0.7L51.6,103.9z"/>
	<path class="st1" d="M56.8,104.5c0.4,0,0.8,0.2,1.2,0.4c0.3,0.2,0.6,0.6,0.8,1c0.2,0.5,0.2,1,0.2,1.8c0,0.7-0.2,1.3-0.4,1.8
		s-0.6,0.8-1,1.1s-0.8,0.3-1.3,0.3c-0.4,0-0.7-0.1-1-0.3c-0.3-0.2-0.5-0.4-0.7-0.7c-0.2-0.3-0.3-0.6-0.3-0.9l1.1,0.1
		c0,0.2,0.1,0.3,0.2,0.4c0.1,0.1,0.2,0.2,0.3,0.3s0.3,0.1,0.5,0.1c0.3,0,0.5,0,0.8-0.2c0.2-0.2,0.4-0.4,0.5-0.7
		c0.1-0.3,0.2-0.7,0.2-1.1h-0.1c-0.1,0.2-0.3,0.3-0.4,0.4c-0.2,0.1-0.4,0.2-0.6,0.2s-0.4,0.1-0.6,0.1c-0.4,0-0.7-0.1-1-0.3
		s-0.5-0.4-0.6-0.8s-0.2-0.7-0.2-1c0-0.4,0.2-0.8,0.4-1.1c0.2-0.3,0.5-0.5,0.9-0.7C55.9,104.5,56.3,104.4,56.8,104.5z M56.7,105.3
		c-0.2,0-0.4,0-0.6,0.1s-0.3,0.2-0.5,0.4c-0.1,0.2-0.2,0.4-0.2,0.6s0,0.4,0.1,0.6s0.2,0.3,0.4,0.5s0.4,0.2,0.6,0.2
		c0.2,0,0.4,0,0.6-0.1c0.2-0.1,0.3-0.2,0.5-0.4c0.1-0.2,0.2-0.4,0.2-0.6s0-0.4-0.1-0.6s-0.2-0.3-0.4-0.5
		C57.1,105.4,56.9,105.4,56.7,105.3z"/>
	<path class="st1" d="M64.1,110.9c-0.5,0-0.8,0-1.2-0.2c-0.4-0.1-0.7-0.3-0.9-0.6s-0.3-0.5-0.3-0.9c0-0.2,0-0.5,0.1-0.7
		s0.2-0.4,0.5-0.6c0.2-0.2,0.4-0.2,0.7-0.3l0,0c-0.2,0-0.4-0.1-0.6-0.2c-0.2-0.1-0.3-0.3-0.4-0.5s-0.2-0.4-0.2-0.6
		c0-0.3,0.1-0.6,0.2-0.9c0.2-0.3,0.4-0.5,0.7-0.6c0.3-0.2,0.7-0.2,1.1-0.3c0.4,0,0.8,0,1.1,0.2c0.3,0.1,0.6,0.3,0.8,0.6
		s0.3,0.5,0.3,0.8c0,0.2,0,0.4-0.1,0.6s-0.2,0.4-0.4,0.5s-0.3,0.2-0.5,0.3l0,0c0.2,0,0.5,0.1,0.7,0.2s0.4,0.3,0.5,0.5
		s0.2,0.4,0.2,0.7c0,0.3-0.1,0.6-0.3,0.9s-0.5,0.5-0.8,0.7C64.9,110.8,64.5,110.9,64.1,110.9z M64,110c0.2,0,0.4-0.1,0.6-0.2
		s0.3-0.2,0.4-0.4c0.1-0.2,0.1-0.3,0.1-0.5s-0.1-0.4-0.2-0.5c-0.1-0.2-0.3-0.3-0.4-0.3c-0.2-0.1-0.4-0.1-0.6-0.1s-0.4,0.1-0.6,0.2
		c-0.2,0.1-0.3,0.2-0.4,0.4c-0.1,0.2-0.1,0.3-0.1,0.5s0,0.3,0.2,0.5s0.2,0.2,0.4,0.3C63.6,110,63.8,110.1,64,110z M63.9,107.2
		c0.2,0,0.4-0.1,0.5-0.1s0.3-0.2,0.3-0.3s0.1-0.3,0.1-0.5s-0.1-0.3-0.2-0.5c-0.1-0.1-0.2-0.2-0.4-0.3c-0.2-0.1-0.3-0.1-0.5-0.1
		s-0.4,0.1-0.5,0.1c-0.2,0.1-0.3,0.2-0.3,0.3c-0.1,0.1-0.1,0.3-0.1,0.5s0,0.3,0.2,0.5c0.1,0.1,0.2,0.2,0.4,0.3
		S63.7,107.2,63.9,107.2z"/>
	<path class="st1" d="M71.8,110.1c-0.5,0.1-0.9,0-1.3-0.2s-0.7-0.5-1-0.9s-0.5-1-0.6-1.6s-0.1-1.2,0-1.7s0.3-0.9,0.6-1.2
		c0.3-0.3,0.7-0.5,1.2-0.6s0.9,0,1.3,0.2s0.7,0.5,1,0.9s0.5,1,0.6,1.6c0.1,0.7,0.1,1.2,0,1.7s-0.3,0.9-0.6,1.2
		C72.7,109.8,72.2,110,71.8,110.1z M71.6,109.2c0.3,0,0.5-0.2,0.6-0.4c0.2-0.2,0.2-0.5,0.3-0.8s0-0.8-0.1-1.2
		c-0.1-0.5-0.2-0.9-0.4-1.2c-0.2-0.3-0.3-0.5-0.6-0.7c-0.2-0.1-0.4-0.2-0.7-0.1c-0.2,0-0.5,0.2-0.6,0.4c-0.2,0.2-0.2,0.5-0.3,0.8
		s0,0.8,0.1,1.2s0.2,0.9,0.4,1.2c0.2,0.3,0.3,0.5,0.6,0.7C71.1,109.2,71.3,109.2,71.6,109.2z"/>
</g>
<g>
	<path class="st1" d="M24.9,39.4l-7.5-5.3l1-1.3l3.2,2.2l2.5-3.5l-3.2-2.2l1-1.4l7.5,5.3l-1,1.3l-3.2-2.2l-2.5,3.5l3.2,2.2
		L24.9,39.4z"/>
	<path class="st1" d="M31.9,30.6l-1.3,1.2L27,22.6l1.5-1.3l8.5,4.8l-1.3,1.1L29,23.4l0,0L31.9,30.6z M29.6,27.8l3.7-3.2l0.9,1
		l-3.7,3.2L29.6,27.8z"/>
	<path class="st1" d="M33.6,19.1l-0.7-1.2l6.4-3.6l0.7,1.2l-2.5,1.4l3.8,6.8l-1.4,0.8l-3.8-6.8L33.6,19.1z"/>
	<path class="st1" d="M45.8,21.6l-2.7-8.8l5.7-1.8l0.4,1.3l-4.1,1.3l0.7,2.4l3.8-1.2l0.4,1.3l-3.8,1.2l0.8,2.4l4.2-1.3l0.4,1.3
		L45.8,21.6z"/>
	<path class="st1" d="M59.2,18.8h-1.8l3.5-9.1l2,0.1l3,9.3h-1.8l-2.3-7.4h-0.1L59.2,18.8z M59.3,15.2l4.8,0.1v1.3l-4.8-0.1V15.2z"/>
	<path class="st1" d="M79.8,16.8c0.1-0.4,0.1-0.7,0-1s-0.3-0.6-0.5-0.8s-0.5-0.4-0.9-0.6c-0.5-0.2-0.9-0.2-1.4-0.1s-0.9,0.3-1.2,0.7
		s-0.7,0.9-0.9,1.5c-0.2,0.6-0.3,1.2-0.3,1.8c0,0.5,0.2,1,0.4,1.4s0.6,0.6,1.1,0.8c0.3,0.1,0.7,0.2,1,0.2s0.6-0.1,0.9-0.3
		c0.3-0.2,0.5-0.4,0.7-0.7l1.6,0.6c-0.3,0.5-0.7,0.9-1.2,1.3s-1.1,0.5-1.7,0.6s-1.3,0-1.9-0.3c-0.8-0.3-1.4-0.7-1.8-1.3
		c-0.5-0.6-0.7-1.3-0.8-2.1s0.1-1.6,0.4-2.6c0.3-0.9,0.8-1.6,1.4-2.2c0.6-0.5,1.2-0.9,2-1c0.7-0.1,1.5,0,2.2,0.2
		c0.6,0.2,1.2,0.6,1.6,1s0.7,0.9,0.9,1.5c0.2,0.6,0.2,1.2,0,1.9L79.8,16.8z"/>
	<path class="st1" d="M82.1,24.8l-1.5-1l7.9-5.7l1.7,1.2l-2.6,9.4l-1.4-1l2.1-7.4h-0.1L82.1,24.8z M84.2,21.8l4,2.8l-0.8,1.1l-4-2.8
		L84.2,21.8z"/>
	<path class="st1" d="M89,29.9l6.8-6.2l1.1,1.2l-3.1,2.8l0.1,0.1l5.6-0.2l1.4,1.5l-5.4,0.1L94,35.4L92.6,34l1.1-4.7h-1.6l-2,1.8
		L89,29.9z"/>
	<path class="st1" d="M94.9,37l8-4.6l3,5.2l-1.2,0.7l-2.2-3.8l-2.2,1.2l2,3.5l-1.2,0.7l-2-3.5L97,37.8l2.2,3.8L98,42.3L94.9,37z"/>
</g>
<g>
	<path class="st0" d="M61.2,96.7c-19.6,0-35.6-15.9-35.6-35.6s16-35.6,35.6-35.6s35.6,16,35.6,35.6C96.7,80.8,80.8,96.7,61.2,96.7z
		 M61.2,27.6c-18.5,0-33.6,15.1-33.6,33.6s15,33.6,33.6,33.6s33.6-15.1,33.6-33.6S79.7,27.6,61.2,27.6z"/>
</g>
<g>
	<circle class="st1" cx="61.2" cy="61.2" r="36.2"/>
</g>
<g>
	<path class="st0" d="M61.2,95.5c-18.9,0-34.3-15.4-34.3-34.3s15.4-34.3,34.3-34.3s34.3,15.4,34.3,34.3S80.1,95.5,61.2,95.5z
		 M61.2,28.9c-17.8,0-32.3,14.5-32.3,32.3s14.5,32.3,32.3,32.3S93.5,79,93.5,61.2S79,28.9,61.2,28.9z"/>
</g>
<g>
	<path class="st1" d="M19,58c-0.4,0-0.9-0.1-1.3-0.2c-1-0.4-1.8-1.2-2.5-2c-0.7,0.8-1.5,1.5-2.5,2c-0.8,0.3-1.8,0.3-2.6,0
		c-0.6-0.3-1-0.8-1.2-1.3c-0.2-0.6-0.1-1.3,0.3-1.9c0.5-0.8,1.4-1.3,2.3-1.4c1.4-0.1,2.7,0.5,3.7,1.1c1.1-0.6,2.3-1.2,3.7-1.1
		c0.9,0.1,1.8,0.6,2.3,1.4c0.4,0.6,0.5,1.3,0.3,1.9c-0.2,0.6-0.6,1.1-1.2,1.3C19.9,58,19.4,58,19,58z M15.8,55L15.8,55
		c0.7,0.8,1.4,1.5,2.2,1.8c0.6,0.2,1.3,0.2,1.8,0c0.2-0.1,0.6-0.3,0.7-0.7s0-0.8-0.2-1c-0.3-0.5-1-0.9-1.6-0.9
		C17.8,54,16.7,54.5,15.8,55z M11.8,54.1c-0.1,0-0.2,0-0.2,0c-0.6,0-1.2,0.4-1.6,0.9c-0.2,0.2-0.3,0.6-0.2,1s0.4,0.6,0.7,0.7
		c0.5,0.2,1.2,0.2,1.8,0c0.9-0.4,1.5-1,2.2-1.8l0,0C13.7,54.6,12.7,54.1,11.8,54.1z"/>
</g>
<g>
	<path class="st1" d="M11.2,62.9c-0.1,0-0.3-0.1-0.4-0.2c-0.2-0.2-0.1-0.5,0.1-0.7c0.5-0.4,1-0.9,1.5-1.4c1.2-1.5,2-3.3,2.2-5.1
		c0-0.2,0.2-0.4,0.5-0.4s0.5,0.2,0.5,0.4c0.3,2.5,1.7,5,3.8,6.5c0.2,0.2,0.3,0.5,0.1,0.7S19,63,18.8,62.8c-1.7-1.2-2.9-3-3.6-5
		c-0.4,1.3-1.1,2.5-2,3.5c-0.5,0.6-1.1,1.1-1.6,1.5C11.4,62.9,11.3,62.9,11.2,62.9z"/>
</g>
<g>
	<path class="st1" d="M104.5,58c-0.5,0-0.9-0.1-1.3-0.3c-0.6-0.3-1.1-0.8-1.2-1.3c-0.2-0.6-0.1-1.3,0.3-1.9c0.5-0.8,1.4-1.3,2.3-1.4
		c1.4-0.1,2.7,0.5,3.7,1.1c1.1-0.6,2.3-1.2,3.7-1.1c0.9,0.1,1.8,0.6,2.3,1.4c0.4,0.6,0.5,1.3,0.3,1.9c-0.2,0.6-0.6,1.1-1.2,1.3
		c-0.8,0.4-1.8,0.4-2.6,0c-1-0.4-1.8-1.2-2.5-2c-0.7,0.8-1.5,1.5-2.5,2C105.4,58,104.9,58,104.5,58z M104.9,54.1c-0.1,0-0.2,0-0.2,0
		c-0.6,0-1.2,0.4-1.6,0.9c-0.2,0.2-0.3,0.6-0.2,1c0.1,0.4,0.4,0.6,0.7,0.7c0.5,0.2,1.2,0.2,1.8,0c0.8-0.4,1.5-1,2.2-1.8l0,0
		C106.8,54.6,105.8,54.1,104.9,54.1z M108.9,55L108.9,55c0.7,0.8,1.4,1.5,2.2,1.8c0.6,0.2,1.3,0.2,1.8,0c0.2-0.1,0.6-0.3,0.7-0.7
		s0-0.8-0.2-1c-0.3-0.5-1-0.9-1.6-0.9C110.9,54,109.8,54.5,108.9,55z"/>
</g>
<g>
	<path class="st1" d="M104.3,62.9c-0.2,0-0.3-0.1-0.4-0.2c-0.2-0.2-0.1-0.5,0.1-0.7c0.5-0.4,1-0.9,1.5-1.4c1.2-1.5,2-3.3,2.2-5.1
		c0-0.2,0.2-0.4,0.5-0.4l0,0c0.2,0,0.5,0.2,0.5,0.4c0.3,2.5,1.7,5,3.8,6.5c0.2,0.2,0.3,0.5,0.1,0.7s-0.5,0.3-0.7,0.1
		c-1.7-1.2-2.9-3-3.7-5c-0.4,1.3-1.1,2.5-2,3.5c-0.5,0.6-1.1,1.1-1.7,1.5C104.5,62.9,104.4,62.9,104.3,62.9z"/>
</g>
<g>
	<path class="st0" d="M61.4,56.5c-0.8,0-1.7-0.1-2.5-0.3c-1-0.2-1.8-0.5-2.4-1c-0.8-0.6-1.4-1.3-1.6-2.2c-0.3-1.1,0-2.4,0.9-3.6
		c0.5-0.8,1.2-1.4,1.8-2c0.4-0.4,0.8-0.8,1.1-1.2c0.6-0.7,1.1-1.4,1.5-2.2c0-0.1,0.1-0.1,0.1-0.2c0.1-0.4,0.4-1,0.9-1s0.9,0.3,1.2,1
		c0.7,1.3,1.5,2.6,2.5,3.7c0.2,0.2,0.4,0.4,0.6,0.6c0.5,0.5,1,1.1,1.5,1.7c0.2,0.3,0.4,0.7,0.6,1.1l0,0c0.3,0.8,0.4,1.5,0.2,2.2
		c-0.2,0.8-0.7,1.6-1.5,2.2c-0.6,0.4-1.4,0.8-2.3,1C63.1,56.4,62.2,56.5,61.4,56.5z M61.3,43.9c0,0.1-0.1,0.2-0.1,0.3
		s-0.1,0.2-0.1,0.3c-0.4,0.9-1,1.7-1.6,2.4c-0.4,0.4-0.8,0.8-1.2,1.2c-0.6,0.6-1.2,1.2-1.7,1.9c-0.4,0.6-1,1.7-0.7,2.8
		c0.2,0.6,0.6,1.2,1.2,1.6c0.5,0.4,1.2,0.6,2,0.8c1.5,0.3,3.1,0.3,4.5,0c0.8-0.2,1.5-0.5,2-0.8c0.6-0.4,1-1,1.1-1.6
		c0.1-0.5,0.1-1-0.2-1.6l0,0c-0.1-0.3-0.3-0.6-0.5-0.9c-0.4-0.6-0.9-1.1-1.4-1.6c-0.2-0.2-0.4-0.4-0.6-0.6c-1.1-1.2-2-2.5-2.7-3.9
		C61.5,44,61.4,44,61.3,43.9z"/>
</g>
<g>
	<path class="st0" d="M57.5,55.6c-0.8-2.2,0.8-4.2,1.6-5.2l0.4-0.5c1.7-2.1,2.8-3.5,1.3-6.4l0.9-0.4c1.7,3.5,0.2,5.4-1.5,7.5
		l-0.4,0.5c-1.1,1.3-2,2.8-1.5,4.2L57.5,55.6z"/>
</g>
<g>
	<path class="st0" d="M61.7,56l-1-0.1c0.1-1.1,0.5-2.2,1.4-3.4l0.3-0.4c0.5-0.7,0.8-1.2,1.2-2c0.5-0.9,0.4-2.2-0.1-2.9l0.8-0.6
		c0.7,1,0.8,2.7,0.2,3.9c-0.4,0.9-0.8,1.4-1.3,2.1L62.9,53C62.1,54.1,61.8,55,61.7,56z"/>
</g>
<g>
	<path class="st0" d="M60.7,60.8c-11.5,0-20.4-3.2-20.4-7.3c0-3.7,7.4-6.7,17.6-7.2H59v1h-1.1c-9.3,0.5-16.6,3.2-16.6,6.2
		s7.8,6.3,19.4,6.3s19.4-3.2,19.4-6.3c0-2.8-6.5-5.5-15.2-6.1l-1.1-0.1l0.1-1l1.1,0.1c9.5,0.7,16.1,3.6,16.1,7.1
		C81.1,57.6,72.1,60.8,60.7,60.8z"/>
</g>
<g>
	<path class="st0" d="M60.7,65.6c-0.9,0-1.8-0.6-2.6-1.1c-0.7-0.5-1.3-0.9-1.8-0.9c-0.6,0-1.3,0.4-2,0.8c-0.8,0.5-1.7,0.9-2.5,0.8
		c-1-0.1-1.7-0.8-2.5-1.5c-0.6-0.5-1.1-1-1.6-1.1c-0.7-0.1-1.5,0.2-2.2,0.5c-0.9,0.3-1.8,0.7-2.6,0.4c-0.6-0.2-1.3-1-2.4-2.2
		l-0.1-0.1l0.8-0.7l0.1,0.1c0.6,0.7,1.5,1.8,1.9,1.9c0.5,0.1,1.2-0.1,1.9-0.4c0.9-0.3,1.8-0.7,2.8-0.5c0.8,0.1,1.5,0.7,2.1,1.3
		s1.3,1.1,1.9,1.2c0.5,0.1,1.2-0.3,2-0.7c0.8-0.5,1.7-0.9,2.6-0.9c0.8,0,1.6,0.6,2.3,1.1c0.7,0.5,1.4,1,2,1s1.3-0.5,2-1
		s1.5-1.1,2.3-1.1c0.9,0,1.8,0.4,2.6,0.9c0.7,0.4,1.4,0.8,1.9,0.7c0.7-0.1,1.3-0.7,1.9-1.2c0.7-0.6,1.3-1.2,2.1-1.3
		c0.9-0.2,1.8,0.2,2.8,0.5c0.8,0.3,1.5,0.5,1.9,0.4c0.7-0.2,1.2-0.9,1.7-1.6l0.2-0.2l0.8,0.6l-0.2,0.3c-0.6,0.8-1.3,1.7-2.3,2
		c-0.8,0.2-1.7-0.1-2.6-0.4c-0.8-0.3-1.6-0.6-2.2-0.5c-0.5,0.1-1.1,0.6-1.6,1.1c-0.8,0.7-1.5,1.4-2.5,1.5c-0.9,0.1-1.7-0.4-2.5-0.8
		c-0.7-0.4-1.5-0.8-2-0.8c-0.6,0-1.2,0.5-1.8,0.9C62.4,65,61.6,65.6,60.7,65.6z"/>
</g>
<g>
	<path class="st0" d="M60.7,71.3c-0.9,0-1.8-0.6-2.6-1.1c-0.7-0.5-1.3-0.9-1.8-0.9c-0.6,0-1.3,0.4-2,0.8c-0.8,0.5-1.7,0.9-2.5,0.8
		c-1-0.1-1.7-0.8-2.5-1.5c-0.6-0.5-1.1-1-1.6-1.1c-0.7-0.1-1.5,0.2-2.2,0.5c-0.9,0.3-1.8,0.7-2.6,0.4c-1.1-0.3-1.8-1.3-2.4-2.2
		c-0.4-0.5-0.7-1.1-1.1-1.2c-0.6-0.3-1.3-0.5-1.9-0.8c-1.3-0.4-2.6-0.9-2.6-2c0-0.3,0.2-0.5,0.5-0.5s0.5,0.2,0.5,0.5
		c0,0.4,1,0.7,1.9,1c0.7,0.2,1.4,0.5,2.1,0.8c0.6,0.3,1,0.9,1.4,1.6c0.5,0.8,1.1,1.6,1.8,1.8c0.5,0.1,1.2-0.1,1.9-0.4
		c0.9-0.3,1.8-0.7,2.8-0.5c0.8,0.1,1.5,0.7,2.1,1.3c0.6,0.6,1.3,1.1,1.9,1.2c0.5,0.1,1.2-0.3,2-0.7c0.8-0.5,1.7-0.9,2.6-0.9
		c0.8,0,1.6,0.6,2.3,1.1s1.4,1,2,1s1.3-0.5,2-1s1.5-1.1,2.3-1.1c0.9,0,1.8,0.4,2.6,0.9c0.7,0.4,1.4,0.8,1.9,0.7
		c0.7-0.1,1.3-0.7,1.9-1.2c0.7-0.6,1.3-1.2,2.1-1.3c0.9-0.2,1.8,0.2,2.8,0.5c0.8,0.3,1.5,0.6,1.9,0.4c0.8-0.2,1.3-1,1.9-1.8
		c0.4-0.6,0.9-1.2,1.4-1.6c0.7-0.3,1.4-0.6,2.1-0.8c0.9-0.3,1.9-0.6,1.9-1c0-0.3,0.2-0.5,0.5-0.5s0.5,0.2,0.5,0.5
		c0,1.1-1.2,1.5-2.6,2c-0.7,0.2-1.3,0.4-1.9,0.8c-0.3,0.2-0.7,0.7-1.1,1.2c-0.6,0.9-1.3,1.8-2.4,2.2c-0.8,0.2-1.7-0.1-2.6-0.4
		c-0.8-0.3-1.6-0.6-2.2-0.5c-0.5,0.1-1.1,0.6-1.6,1.1c-0.8,0.7-1.5,1.4-2.5,1.5c-0.9,0.1-1.7-0.4-2.5-0.8c-0.7-0.4-1.4-0.8-2-0.8
		s-1.2,0.5-1.8,0.9C62.4,70.7,61.6,71.3,60.7,71.3z"/>
</g>
<g>
	<path class="st0" d="M60.7,76.2c-11.5,0-20.4-3.2-20.4-7.3V53.5h1v15.4c0,3,7.8,6.3,19.4,6.3s19.4-3.2,19.4-6.3V53.5h1v15.4
		C81.1,73,72.1,76.2,60.7,76.2z"/>
</g>
<g>
	<circle class="st2" cx="61.4" cy="42.9" r="2"/>
</g>
<g>
	<path class="st2" d="M61.4,42.8c-0.3,0-0.5-0.2-0.5-0.5c0-0.7,0.4-3.1,2-3.5c0.3-0.1,0.5,0.1,0.6,0.4c0.1,0.3-0.1,0.5-0.4,0.6
		c-0.8,0.2-1.3,1.9-1.2,2.5C61.9,42.5,61.7,42.7,61.4,42.8L61.4,42.8z"/>
</g>
<g>
	<circle class="st1" cx="40.2" cy="104.3" r="0.9"/>
</g>
<g>
	<circle class="st1" cx="81.1" cy="104.3" r="0.9"/>
</g>
</svg>
