<svg id="Layer_1" data-name="Layer 1" xmlns="http://www.w3.org/2000/svg" viewBox="0 0 122.36 122.36"><defs><style>.cls-1{fill:none;}.cls-2{fill:#db7f8e;}.cls-3{fill:#fff;}.cls-4{fill:#903d52;}</style></defs><g id="Logo3"><path class="cls-1" d="M61.18,2a59.18,59.18,0,1,0,59.18,59.18A59.25,59.25,0,0,0,61.18,2Zm0,116.26a57.08,57.08,0,1,1,57.08-57.08A57.08,57.08,0,0,1,61.18,118.26Z"/><path class="cls-2" d="M61.18,0a61.18,61.18,0,1,0,61.18,61.18A61.24,61.24,0,0,0,61.18,0Zm0,120.36a59.18,59.18,0,1,1,59.18-59.18A59.25,59.25,0,0,1,61.18,120.36Z"/><path class="cls-2" d="M58.6,105.77a1.12,1.12,0,0,0-.55-.18,1.09,1.09,0,0,0-.57.12,1,1,0,0,0-.42.37,1,1,0,0,0-.17.54,1,1,0,0,0,.11.55,1,1,0,0,0,.36.42,1.24,1.24,0,0,0,.55.18,1.13,1.13,0,0,0,1-.5,1.11,1.11,0,0,0,.17-.53,1,1,0,0,0-.11-.54A1.11,1.11,0,0,0,58.6,105.77Z"/><path class="cls-2" d="M18.82,54.13a5.54,5.54,0,0,0-3,.91l0,0a7,7,0,0,0,2.21,1.8,2.34,2.34,0,0,0,1.82,0,1.15,1.15,0,0,0,.51-1.79A2.23,2.23,0,0,0,18.82,54.13Z"/><path class="cls-2" d="M64.28,107.1a1,1,0,0,0,.49.08,1.07,1.07,0,0,0,.48-.13,1,1,0,0,0,.32-.31.79.79,0,0,0,.09-.44.72.72,0,0,0-.14-.41.82.82,0,0,0-.35-.28,1.23,1.23,0,0,0-1,.06.72.72,0,0,0-.32.3.78.78,0,0,0-.09.43.71.71,0,0,0,.14.43A.74.74,0,0,0,64.28,107.1Z"/><path class="cls-2" d="M65.38,108a1.32,1.32,0,0,0-.57-.09,1.26,1.26,0,0,0-.56.15.94.94,0,0,0-.38.36.89.89,0,0,0,0,.93.83.83,0,0,0,.41.29,1.34,1.34,0,0,0,.58.08,1.41,1.41,0,0,0,.57-.14.81.81,0,0,0,.48-.79.83.83,0,0,0-.16-.47A1,1,0,0,0,65.38,108Z"/><path class="cls-2" d="M107.62,55a6,6,0,0,0-2.75-.92h-.25a2.23,2.23,0,0,0-1.57.93,1.15,1.15,0,0,0,.51,1.79,2.34,2.34,0,0,0,1.82,0,7.21,7.21,0,0,0,2.2-1.79Z"/><path class="cls-2" d="M72.19,105.5a1.53,1.53,0,0,0-.52-.61.89.89,0,0,0-.64-.12.9.9,0,0,0-.56.35,1.59,1.59,0,0,0-.26.76,4.29,4.29,0,0,0,.08,1.14,3.8,3.8,0,0,0,.35,1.08,1.55,1.55,0,0,0,.51.62.94.94,0,0,0,1.21-.23,1.59,1.59,0,0,0,.26-.76,4.76,4.76,0,0,0-.43-2.23Z"/><polygon class="cls-2" points="32.73 25.08 29.38 23.06 29.32 23.1 30.77 26.74 32.73 25.08"/><polygon class="cls-2" points="88.69 20.45 88.63 20.41 85.47 22.72 87.57 24.2 88.69 20.45"/><polygon class="cls-2" points="62.38 11.58 62.31 11.58 60.94 15.25 63.5 15.33 62.38 11.58"/><path class="cls-2" d="M14.53,55a6,6,0,0,0-2.75-.92h-.25a2.23,2.23,0,0,0-1.57.93,1.15,1.15,0,0,0,.51,1.79,2.34,2.34,0,0,0,1.82,0,7.21,7.21,0,0,0,2.2-1.79Z"/><path class="cls-2" d="M111.91,54.13a5.54,5.54,0,0,0-3,.91l0,0a6.88,6.88,0,0,0,2.2,1.8,2.34,2.34,0,0,0,1.82,0,1.15,1.15,0,0,0,.51-1.79A2.23,2.23,0,0,0,111.91,54.13Z"/><path class="cls-2" d="M61.18,4.1a57.08,57.08,0,1,0,57.08,57.08A57.07,57.07,0,0,0,61.18,4.1ZM97.26,25.36l-3.17,2.81.08.09,5.55-.11,1.34,1.51-5.45.07-1.42,6-1.32-1.49L94,29.61l-1.59,0-2,1.81-1.09-1.23,6.89-6.09Zm-6.69-5.88-2.65,9.38-1.44-1,.69-2.3-2.83-2L82.41,25,81,24l8-5.64ZM73.75,16a5.62,5.62,0,0,1,1.43-2.14,3.87,3.87,0,0,1,2-1,4.19,4.19,0,0,1,2.22.26,4.36,4.36,0,0,1,1.58,1,3.53,3.53,0,0,1,.86,1.53,3.78,3.78,0,0,1,0,1.86L80.28,17a2.18,2.18,0,0,0,0-1,2,2,0,0,0-.49-.84,2.57,2.57,0,0,0-.88-.57,2.49,2.49,0,0,0-1.39-.14,2.58,2.58,0,0,0-1.25.7,4.38,4.38,0,0,0-.94,1.51A4.24,4.24,0,0,0,75,18.37a2.5,2.5,0,0,0,.43,1.36,2.4,2.4,0,0,0,1.11.83,2.44,2.44,0,0,0,1,.19,2,2,0,0,0,.93-.26,2,2,0,0,0,.72-.69l1.55.62a3.48,3.48,0,0,1-1.18,1.26,3.53,3.53,0,0,1-1.67.56,4.08,4.08,0,0,1-1.92-.3,4.19,4.19,0,0,1-1.82-1.33,3.94,3.94,0,0,1-.79-2.07A5.63,5.63,0,0,1,73.75,16ZM61.39,9.67l2,.07L66.35,19,64.59,19l-.69-2.3-3.45-.12-.84,2.25-1.77-.06ZM49.28,10.91l.4,1.33-4.14,1.23.71,2.41,3.85-1.15.39,1.33L46.65,17.2l.72,2.42,4.17-1.25.4,1.34-5.75,1.71-2.63-8.81Zm-9.53,3.21.67,1.22L37.93,16.7l3.74,6.85-1.44.79-3.74-6.85L34,18.86l-.66-1.22ZM28.91,21l8.42,4.92L36,27.05l-2.06-1.24L31.29,28l.89,2.23-1.35,1.15-3.47-9.11ZM18.65,32.3l3.16,2.28,2.5-3.47-3.16-2.28,1-1.34,7.45,5.37-1,1.35-3.18-2.29-2.5,3.47,3.17,2.29-1,1.33-7.46-5.37Zm2.88,24.12a2.22,2.22,0,0,1-1.23,1.34,3.34,3.34,0,0,1-2.63,0,6.22,6.22,0,0,1-1.84-1.31A9.74,9.74,0,0,0,19.42,62l-.6.8a10.78,10.78,0,0,1-3.65-5,10.71,10.71,0,0,1-2,3.48,10.08,10.08,0,0,1-1.65,1.55l-.6-.8a8.94,8.94,0,0,0,1.49-1.4,9.65,9.65,0,0,0,2.06-4.1,6.24,6.24,0,0,1-1.8,1.27,3.38,3.38,0,0,1-1.3.25,3.17,3.17,0,0,1-1.33-.28,2.15,2.15,0,0,1-.92-3.25,3.21,3.21,0,0,1,2.31-1.38,6.7,6.7,0,0,1,3.73,1.12,6.73,6.73,0,0,1,3.74-1.12,3.25,3.25,0,0,1,2.31,1.38A2.2,2.2,0,0,1,21.53,56.42Zm22.63,49.67a.92.92,0,1,1,.92-.91A.91.91,0,0,1,44.16,106.09Zm8.24,3.84-1-.17.79-4.6h0l-1.45.61.16-.92,1.54-.66,1,.17Zm7.37-.66a2.38,2.38,0,0,1-.85,1,2,2,0,0,1-1.22.29,2.19,2.19,0,0,1-1-.26,1.85,1.85,0,0,1-.66-.61,1.93,1.93,0,0,1-.27-.85l1,.05a1.2,1.2,0,0,0,.16.4.76.76,0,0,0,.32.27,1.15,1.15,0,0,0,1.15-.07,1.38,1.38,0,0,0,.47-.64,3.21,3.21,0,0,0,.22-1h-.06a1.85,1.85,0,0,1-.39.4,1.71,1.71,0,0,1-.51.24,1.67,1.67,0,0,1-.59,0,1.8,1.8,0,0,1-.9-.28,1.72,1.72,0,0,1-.61-.7,1.88,1.88,0,0,1-.18-1,1.82,1.82,0,0,1,.32-1A1.75,1.75,0,0,1,57,105a2.32,2.32,0,0,1,1.1-.19,2.44,2.44,0,0,1,1.08.33,2,2,0,0,1,.75.92,3.69,3.69,0,0,1,.22,1.61A4.61,4.61,0,0,1,59.77,109.27Zm7,.41a1.79,1.79,0,0,1-.74.6,2.65,2.65,0,0,1-1.09.27,2.9,2.9,0,0,1-1.12-.15,1.87,1.87,0,0,1-.79-.53,1.43,1.43,0,0,1-.19-1.47,1.43,1.43,0,0,1,1-.8v0a1.13,1.13,0,0,1-.53-.22,1.28,1.28,0,0,1-.38-.42,1.33,1.33,0,0,1-.15-.56,1.21,1.21,0,0,1,.21-.79,1.64,1.64,0,0,1,.66-.58,2.36,2.36,0,0,1,1-.25,2.32,2.32,0,0,1,1,.15,1.64,1.64,0,0,1,.72.5,1.33,1.33,0,0,1,.29.77,1.23,1.23,0,0,1-.1.57,1.43,1.43,0,0,1-.33.47,1.26,1.26,0,0,1-.5.26v0a1.4,1.4,0,0,1,.62.22,1.44,1.44,0,0,1,.47.48,1.29,1.29,0,0,1,.19.64A1.32,1.32,0,0,1,66.77,109.68ZM73.59,108a2.16,2.16,0,0,1-.55,1.12,1.88,1.88,0,0,1-1.07.56,2.07,2.07,0,0,1-1.22-.12,2.19,2.19,0,0,1-.92-.85,4.27,4.27,0,0,1-.55-1.5,4.36,4.36,0,0,1,0-1.6,2.09,2.09,0,0,1,.55-1.11,2,2,0,0,1,1.08-.56,2.05,2.05,0,0,1,1.21.12,2.1,2.1,0,0,1,.92.84,4.89,4.89,0,0,1,.59,3.1Zm7-1.91a.92.92,0,1,1,.91-.91A.92.92,0,0,1,80.6,106.09ZM61.18,97.42A36.25,36.25,0,1,1,97.42,61.18,36.24,36.24,0,0,1,61.18,97.42Zm40.16-57-2-3.5-2.19,1.23,2.12,3.8-1.21.68-2.93-5.24,8-4.48,2.92,5.21-1.22.68L102.78,35l-2.19,1.23,2,3.49Zm12,17.37a3.34,3.34,0,0,1-2.63,0,6.22,6.22,0,0,1-1.84-1.31A9.79,9.79,0,0,0,112.51,62l-.6.8a10.78,10.78,0,0,1-3.65-5,10.6,10.6,0,0,1-2,3.48,10.08,10.08,0,0,1-1.65,1.55L104,62a8.94,8.94,0,0,0,1.49-1.4,9.65,9.65,0,0,0,2.06-4.1,6.24,6.24,0,0,1-1.8,1.27,3.38,3.38,0,0,1-1.3.25,3.17,3.17,0,0,1-1.33-.28,2.15,2.15,0,0,1-.92-3.25,3.23,3.23,0,0,1,2.31-1.38,6.67,6.67,0,0,1,3.73,1.12A6.73,6.73,0,0,1,112,53.13a3.23,3.23,0,0,1,2.31,1.38,2.15,2.15,0,0,1-.92,3.25Z"/><polygon class="cls-3" points="50.86 104.85 50.7 105.77 52.15 105.16 52.18 105.16 51.39 109.76 52.4 109.93 53.36 104.36 52.4 104.19 50.86 104.85"/><path class="cls-3" d="M59.17,105.1a2.44,2.44,0,0,0-1.08-.33A2.32,2.32,0,0,0,57,105a1.75,1.75,0,0,0-.77.65,1.82,1.82,0,0,0-.32,1,1.88,1.88,0,0,0,.18,1,1.72,1.72,0,0,0,.61.7,1.8,1.8,0,0,0,.9.28,1.67,1.67,0,0,0,.59,0,1.71,1.71,0,0,0,.51-.24,1.85,1.85,0,0,0,.39-.4h.06a3.21,3.21,0,0,1-.22,1,1.38,1.38,0,0,1-.47.64,1.15,1.15,0,0,1-1.15.07.76.76,0,0,1-.32-.27,1.2,1.2,0,0,1-.16-.4l-1-.05a1.93,1.93,0,0,0,.27.85,1.85,1.85,0,0,0,.66.61,2.19,2.19,0,0,0,1,.26,2,2,0,0,0,1.22-.29,2.38,2.38,0,0,0,.85-1,4.61,4.61,0,0,0,.37-1.64,3.69,3.69,0,0,0-.22-1.61A2,2,0,0,0,59.17,105.1Zm-.26,2.17a1.13,1.13,0,0,1-1,.5,1.24,1.24,0,0,1-.55-.18,1,1,0,0,1-.36-.42,1,1,0,0,1-.11-.55,1,1,0,0,1,.17-.54,1,1,0,0,1,.42-.37,1.09,1.09,0,0,1,.57-.12,1.12,1.12,0,0,1,.55.18,1.11,1.11,0,0,1,.37.43,1,1,0,0,1,.11.54A1.11,1.11,0,0,1,58.91,107.27Z"/><path class="cls-3" d="M66.34,107.72a1.4,1.4,0,0,0-.62-.22v0a1.26,1.26,0,0,0,.5-.26,1.43,1.43,0,0,0,.33-.47,1.23,1.23,0,0,0,.1-.57,1.33,1.33,0,0,0-.29-.77,1.64,1.64,0,0,0-.72-.5,2.32,2.32,0,0,0-1-.15,2.36,2.36,0,0,0-1,.25,1.64,1.64,0,0,0-.66.58,1.21,1.21,0,0,0-.21.79,1.33,1.33,0,0,0,.15.56,1.28,1.28,0,0,0,.38.42,1.13,1.13,0,0,0,.53.22v0a1.43,1.43,0,0,0-1,.8,1.43,1.43,0,0,0,.19,1.47,1.87,1.87,0,0,0,.79.53,2.9,2.9,0,0,0,1.12.15,2.65,2.65,0,0,0,1.09-.27,1.79,1.79,0,0,0,.74-.6,1.32,1.32,0,0,0,.23-.84,1.29,1.29,0,0,0-.19-.64A1.44,1.44,0,0,0,66.34,107.72Zm-2.55-1.32a.78.78,0,0,1,.09-.43.72.72,0,0,1,.32-.3,1.23,1.23,0,0,1,1-.06.82.82,0,0,1,.35.28.72.72,0,0,1,.14.41.79.79,0,0,1-.09.44,1,1,0,0,1-.32.31,1.07,1.07,0,0,1-.48.13,1,1,0,0,1-.49-.08.74.74,0,0,1-.35-.27A.71.71,0,0,1,63.79,106.4Zm2.05,2.89a.8.8,0,0,1-.37.33,1.41,1.41,0,0,1-.57.14,1.34,1.34,0,0,1-.58-.08.83.83,0,0,1-.41-.29.89.89,0,0,1,0-.93.94.94,0,0,1,.38-.36,1.26,1.26,0,0,1,.56-.15,1.32,1.32,0,0,1,.57.09,1,1,0,0,1,.41.32.83.83,0,0,1,.16.47A.81.81,0,0,1,65.84,109.29Z"/><path class="cls-3" d="M73,104.9a2.1,2.1,0,0,0-.92-.84,2.05,2.05,0,0,0-1.21-.12,2,2,0,0,0-1.08.56,2.09,2.09,0,0,0-.55,1.11,4.36,4.36,0,0,0,0,1.6,4.27,4.27,0,0,0,.55,1.5,2.19,2.19,0,0,0,.92.85,2.07,2.07,0,0,0,1.22.12,1.88,1.88,0,0,0,1.07-.56,2.16,2.16,0,0,0,.55-1.12,4.89,4.89,0,0,0-.59-3.1Zm-.38,2.83a1.59,1.59,0,0,1-.26.76.94.94,0,0,1-1.21.23,1.55,1.55,0,0,1-.51-.62,3.8,3.8,0,0,1-.35-1.08,4.29,4.29,0,0,1-.08-1.14,1.59,1.59,0,0,1,.26-.76.9.9,0,0,1,.56-.35.89.89,0,0,1,.64.12,1.53,1.53,0,0,1,.52.61,4.76,4.76,0,0,1,.43,2.23Z"/><polygon class="cls-3" points="26.1 37.68 22.93 35.39 25.43 31.92 28.61 34.2 29.57 32.86 22.11 27.49 21.15 28.83 24.31 31.11 21.81 34.58 18.65 32.3 17.68 33.64 25.14 39.01 26.1 37.68"/><path class="cls-3" d="M32.18,30.27,31.29,28l2.64-2.23L36,27.05l1.34-1.14L28.91,21l-1.55,1.32,3.47,9.11Zm-2.8-7.21,3.35,2-2,1.66L29.32,23.1Z"/><polygon class="cls-3" points="36.48 17.49 40.23 24.34 41.67 23.55 37.93 16.7 40.41 15.34 39.75 14.12 33.33 17.64 33.99 18.86 36.48 17.49"/><polygon class="cls-3" points="51.94 19.71 51.54 18.37 47.37 19.62 46.65 17.2 50.49 16.06 50.1 14.73 46.26 15.88 45.54 13.47 49.68 12.24 49.28 10.9 43.56 12.61 46.19 21.42 51.94 19.71"/><path class="cls-3" d="M60.45,16.56l3.45.12.69,2.3,1.76.06-2.93-9.3-2-.07-3.55,9.08,1.77.06Zm1.86-5h.07l1.12,3.75-2.56-.08Z"/><path class="cls-3" d="M74.12,20.61a4.19,4.19,0,0,0,1.82,1.33,4.08,4.08,0,0,0,1.92.3,3.53,3.53,0,0,0,1.67-.56,3.48,3.48,0,0,0,1.18-1.26l-1.55-.62a2,2,0,0,1-.72.69,2,2,0,0,1-.93.26,2.44,2.44,0,0,1-1-.19,2.4,2.4,0,0,1-1.11-.83A2.5,2.5,0,0,1,75,18.37a4.24,4.24,0,0,1,.34-1.76,4.38,4.38,0,0,1,.94-1.51,2.58,2.58,0,0,1,1.25-.7,2.49,2.49,0,0,1,1.39.14,2.57,2.57,0,0,1,.88.57,2,2,0,0,1,.49.84,2.18,2.18,0,0,1,0,1l1.55.61a3.78,3.78,0,0,0,0-1.86A3.53,3.53,0,0,0,81,14.19a4.36,4.36,0,0,0-1.58-1,4.19,4.19,0,0,0-2.22-.26,3.87,3.87,0,0,0-2,1A5.62,5.62,0,0,0,73.75,16a5.63,5.63,0,0,0-.42,2.54A3.94,3.94,0,0,0,74.12,20.61Z"/><path class="cls-3" d="M82.41,25l1.93-1.42,2.83,2-.69,2.3,1.44,1,2.65-9.38-1.66-1.17L81,24Zm6.22-4.56.06,0L87.57,24.2l-2.1-1.48Z"/><polygon class="cls-3" points="90.37 31.45 92.42 29.64 94.01 29.61 92.87 34.28 94.19 35.77 95.61 29.73 101.06 29.66 99.72 28.15 94.17 28.26 94.09 28.17 97.26 25.36 96.17 24.13 89.28 30.22 90.37 31.45"/><polygon class="cls-3" points="100.59 36.22 102.78 34.99 104.89 38.77 106.11 38.09 103.19 32.88 95.17 37.36 98.1 42.6 99.31 41.92 97.19 38.12 99.38 36.89 101.34 40.39 102.55 39.72 100.59 36.22"/><path class="cls-3" d="M43.06,62.07A3.72,3.72,0,0,0,45,61.65a5.35,5.35,0,0,1,2.75-.52,4.74,4.74,0,0,1,2.13,1.33,4.12,4.12,0,0,0,1.93,1.21A4,4,0,0,0,53.76,63a4.89,4.89,0,0,1,2.58-.89,4.8,4.8,0,0,1,2.34,1.1,4.14,4.14,0,0,0,2,1,4.17,4.17,0,0,0,2-1A4.8,4.8,0,0,1,65,62.07a5,5,0,0,1,2.58.89,4,4,0,0,0,2,.71,4.19,4.19,0,0,0,1.94-1.21,4.66,4.66,0,0,1,2.12-1.33,5.31,5.31,0,0,1,2.74.52,3.77,3.77,0,0,0,2,.42A3.7,3.7,0,0,0,80,60.47l.09-.12V55.79c-2.63,2.92-10.22,5-19.43,5s-16.79-2.06-19.42-5v4.5A8.31,8.31,0,0,0,43.06,62.07Z"/><path class="cls-3" d="M78.56,68.69A4.29,4.29,0,0,1,76,68.25a4.6,4.6,0,0,0-2.21-.47,4.06,4.06,0,0,0-1.64,1.09,4.85,4.85,0,0,1-2.49,1.46,4.56,4.56,0,0,1-2.54-.84,4.48,4.48,0,0,0-2-.76,4.19,4.19,0,0,0-1.83.92,4.74,4.74,0,0,1-2.57,1.14,4.74,4.74,0,0,1-2.56-1.14,4.22,4.22,0,0,0-1.82-.92,4.36,4.36,0,0,0-2,.76,4.56,4.56,0,0,1-2.54.84,4.89,4.89,0,0,1-2.49-1.46,4.1,4.1,0,0,0-1.63-1.09,4.61,4.61,0,0,0-2.22.47,4.29,4.29,0,0,1-2.57.44,3.34,3.34,0,0,1-1.54-1V69c0,3,7.81,6.26,19.42,6.26S80.1,72,80.1,69v-1.3A3.28,3.28,0,0,1,78.56,68.69Z"/><path class="cls-3" d="M60.06,46.29a7.72,7.72,0,0,1-1.49,1.56c-.25.22-.52.45-.81.74A7.13,7.13,0,0,0,56,51.13a2.81,2.81,0,0,0,.33,2.5l.06.11a2.25,2.25,0,0,0,.84.85A4.37,4.37,0,0,1,58.75,51a7.09,7.09,0,0,0,2.62-6.15,1.47,1.47,0,0,1-.36,0C60.68,45.37,60.34,45.88,60.06,46.29Z"/><path class="cls-3" d="M61.18,24.93A36.25,36.25,0,1,0,97.42,61.18,36.25,36.25,0,0,0,61.18,24.93Zm0,70.58A34.33,34.33,0,1,1,95.51,61.18,34.37,34.37,0,0,1,61.18,95.51Z"/><path class="cls-3" d="M60.67,59.77c11.62,0,19.43-3.23,19.43-6.26,0-2.84-6.53-5.46-15.18-6.1h-.1l.32.33.59.56c.37.35.76.71,1.11,1.11a4,4,0,0,1,.83,1.47,4.57,4.57,0,0,1-.34,3.26c0,.08-1,2.28-5.28,2.28h-.67c-4.43.23-5.67-1.82-5.87-2.22a3.81,3.81,0,0,1-.45-3.33,8.34,8.34,0,0,1,2-3l.6-.55c-9.2.48-16.4,3.18-16.4,6.18S49.06,59.77,60.67,59.77Z"/><path class="cls-3" d="M61.71,53.14a9.37,9.37,0,0,0,1.22-1.94,6,6,0,0,0,0-4.72l-.13-.19-.36-.53a8.22,8.22,0,0,1-3,6,3.37,3.37,0,0,0-1.07,3.36,7.78,7.78,0,0,0,2,.31A9.53,9.53,0,0,1,61.71,53.14Z"/><path class="cls-3" d="M62.51,53.74a10.6,10.6,0,0,0-1.1,1.66c4.13.19,5-1.59,5-1.67a3.62,3.62,0,0,0,.3-2.57,2.83,2.83,0,0,0-.62-1.1c-.32-.36-.67-.69-1-1-.21-.19-.41-.39-.61-.59l-.07-.06a7.14,7.14,0,0,1-.52,3.21A10.05,10.05,0,0,1,62.51,53.74Z"/><path class="cls-3" d="M43.06,67.73A3.72,3.72,0,0,0,45,67.31a5.35,5.35,0,0,1,2.75-.52,4.83,4.83,0,0,1,2.13,1.33,4.12,4.12,0,0,0,1.93,1.21,3.89,3.89,0,0,0,1.95-.71,5,5,0,0,1,2.58-.89,4.8,4.8,0,0,1,2.34,1.1,4.14,4.14,0,0,0,2,1,4.17,4.17,0,0,0,2-1A4.8,4.8,0,0,1,65,67.73a5,5,0,0,1,2.58.89,3.89,3.89,0,0,0,2,.71,4.19,4.19,0,0,0,1.94-1.21,4.75,4.75,0,0,1,2.12-1.33,5.31,5.31,0,0,1,2.74.52,3.77,3.77,0,0,0,2,.42A3.87,3.87,0,0,0,80.1,66V62A3.35,3.35,0,0,1,78.56,63,4.29,4.29,0,0,1,76,62.59a4.74,4.74,0,0,0-2.21-.48,4.1,4.1,0,0,0-1.64,1.1,4.85,4.85,0,0,1-2.49,1.46,4.56,4.56,0,0,1-2.54-.84,4.48,4.48,0,0,0-2-.76,4.19,4.19,0,0,0-1.83.92,4.74,4.74,0,0,1-2.57,1.14A4.74,4.74,0,0,1,58.11,64a4.22,4.22,0,0,0-1.82-.92,4.36,4.36,0,0,0-2,.76,4.56,4.56,0,0,1-2.54.84,4.89,4.89,0,0,1-2.49-1.46,4.14,4.14,0,0,0-1.63-1.1,4.75,4.75,0,0,0-2.22.48,4.29,4.29,0,0,1-2.57.44,4.13,4.13,0,0,1-1.54-1.23V66A3.94,3.94,0,0,0,43.06,67.73Z"/><path class="cls-3" d="M61.18,28.85A32.33,32.33,0,1,0,93.51,61.18,32.36,32.36,0,0,0,61.18,28.85ZM84,64.52a13.58,13.58,0,0,0-1.93.76,3.32,3.32,0,0,0-1,1V69c0,4.07-9,7.26-20.43,7.26S40.25,73,40.25,69V66.33a3.43,3.43,0,0,0-1-1,13.58,13.58,0,0,0-1.93-.76c-1.32-.45-2.57-.87-2.57-2a.51.51,0,0,1,.5-.5.5.5,0,0,1,.5.5c0,.38,1,.72,1.89,1a13.69,13.69,0,0,1,2.07.82,2.52,2.52,0,0,1,.49.37V53.51c0-3.68,7.4-6.7,17.59-7.19h.91c.16-.18.32-.37.49-.6s.57-.85.88-1.38A1.94,1.94,0,0,1,61,41a4.29,4.29,0,0,1,.87-2.43.92.92,0,0,1,.79-.26.5.5,0,1,1-.14,1A3.81,3.81,0,0,0,62,41a1.93,1.93,0,0,1,.7,3.31c.32.53.63,1,.89,1.38l.13.19h0l0,.1.19.28,0,0,1,.09c9.48.7,16.1,3.63,16.1,7.1V64.76a2.13,2.13,0,0,1,.49-.36,13.76,13.76,0,0,1,2.07-.83c.88-.3,1.89-.64,1.89-1a.5.5,0,0,1,.5-.5.51.51,0,0,1,.5.5C86.55,63.65,85.3,64.07,84,64.52Z"/><path class="cls-2" d="M61.18,26.85A34.33,34.33,0,1,0,95.51,61.18,34.37,34.37,0,0,0,61.18,26.85Zm0,66.66A32.33,32.33,0,1,1,93.51,61.18,32.37,32.37,0,0,1,61.18,93.51Z"/><path class="cls-3" d="M18.91,53.13a6.73,6.73,0,0,0-3.74,1.12,6.7,6.7,0,0,0-3.73-1.12,3.21,3.21,0,0,0-2.31,1.38,2.15,2.15,0,0,0,.92,3.25,3.17,3.17,0,0,0,1.33.28,3.38,3.38,0,0,0,1.3-.25,6.24,6.24,0,0,0,1.8-1.27,9.65,9.65,0,0,1-2.06,4.1A8.94,8.94,0,0,1,10.93,62l.6.8a10.08,10.08,0,0,0,1.65-1.55,10.71,10.71,0,0,0,2-3.48,10.78,10.78,0,0,0,3.65,5l.6-.8a9.74,9.74,0,0,1-3.59-5.54,6.22,6.22,0,0,0,1.84,1.31,3.34,3.34,0,0,0,2.63,0,2.15,2.15,0,0,0,.92-3.25A3.25,3.25,0,0,0,18.91,53.13Zm-6.62,3.74a2.34,2.34,0,0,1-1.82,0A1.15,1.15,0,0,1,10,55.06a2.23,2.23,0,0,1,1.57-.93h.25a6,6,0,0,1,2.75.92l0,0A7.21,7.21,0,0,1,12.29,56.87Zm8.29-.75a1.23,1.23,0,0,1-.7.73,2.34,2.34,0,0,1-1.82,0,7,7,0,0,1-2.21-1.8l0,0a5.54,5.54,0,0,1,3-.91,2.23,2.23,0,0,1,1.57.93A1.24,1.24,0,0,1,20.58,56.12Z"/><path class="cls-3" d="M114.31,54.51A3.23,3.23,0,0,0,112,53.13a6.73,6.73,0,0,0-3.74,1.12,6.67,6.67,0,0,0-3.73-1.12,3.23,3.23,0,0,0-2.31,1.38,2.15,2.15,0,0,0,.92,3.25,3.17,3.17,0,0,0,1.33.28,3.38,3.38,0,0,0,1.3-.25,6.24,6.24,0,0,0,1.8-1.27,9.65,9.65,0,0,1-2.06,4.1A8.94,8.94,0,0,1,104,62l.6.8a10.08,10.08,0,0,0,1.65-1.55,10.6,10.6,0,0,0,2-3.48,10.78,10.78,0,0,0,3.65,5l.6-.8a9.79,9.79,0,0,1-3.59-5.54,6.22,6.22,0,0,0,1.84,1.31,3.34,3.34,0,0,0,2.63,0,2.15,2.15,0,0,0,.92-3.25Zm-8.93,2.36a2.34,2.34,0,0,1-1.82,0,1.15,1.15,0,0,1-.51-1.79,2.23,2.23,0,0,1,1.57-.93h.25a6,6,0,0,1,2.75.92l0,0A7.21,7.21,0,0,1,105.38,56.87Zm8.29-.75a1.23,1.23,0,0,1-.7.73,2.34,2.34,0,0,1-1.82,0,6.88,6.88,0,0,1-2.2-1.8l0,0a5.54,5.54,0,0,1,3-.91,2.23,2.23,0,0,1,1.57.93A1.24,1.24,0,0,1,113.67,56.12Z"/><path class="cls-2" d="M86.05,62.05a.5.5,0,0,0-.5.5c0,.38-1,.72-1.89,1a13.76,13.76,0,0,0-2.07.83,2.13,2.13,0,0,0-.49.36V53.51c0-3.47-6.62-6.4-16.1-7.1l-1-.09,0,0L63.77,46l0-.1h0l-.13-.19c-.26-.38-.57-.85-.89-1.38a1.78,1.78,0,0,1-.36.25,1.87,1.87,0,0,1-.53.2,1.72,1.72,0,0,1-.39,0h0A7.09,7.09,0,0,1,58.75,51a4.37,4.37,0,0,0-1.5,3.61,2.25,2.25,0,0,1-.84-.85l-.06-.11a2.81,2.81,0,0,1-.33-2.5,7.13,7.13,0,0,1,1.74-2.54c.29-.29.56-.52.81-.74a7.72,7.72,0,0,0,1.49-1.56c.28-.41.62-.92.95-1.5a1.93,1.93,0,0,1-.89-.45c-.31.53-.63,1-.88,1.38s-.33.42-.49.6h-.91c-10.19.49-17.59,3.51-17.59,7.19V64.76a2.52,2.52,0,0,0-.49-.37,13.69,13.69,0,0,0-2.07-.82c-.88-.3-1.89-.64-1.89-1a.5.5,0,0,0-.5-.5.51.51,0,0,0-.5.5c0,1.1,1.25,1.52,2.57,2a13.58,13.58,0,0,1,1.93.76,3.43,3.43,0,0,1,1,1V69c0,4.07,9,7.26,20.42,7.26S81.1,73,81.1,69V66.33a3.32,3.32,0,0,1,1-1A13.58,13.58,0,0,1,84,64.52c1.32-.45,2.57-.87,2.57-2A.51.51,0,0,0,86.05,62.05Zm-44.8-.25A4.13,4.13,0,0,0,42.79,63a4.29,4.29,0,0,0,2.57-.44,4.75,4.75,0,0,1,2.22-.48,4.14,4.14,0,0,1,1.63,1.1,4.89,4.89,0,0,0,2.49,1.46,4.56,4.56,0,0,0,2.54-.84,4.36,4.36,0,0,1,2-.76,4.22,4.22,0,0,1,1.82.92,4.74,4.74,0,0,0,2.56,1.14A4.74,4.74,0,0,0,63.24,64a4.19,4.19,0,0,1,1.83-.92,4.48,4.48,0,0,1,2,.76,4.56,4.56,0,0,0,2.54.84,4.85,4.85,0,0,0,2.49-1.46,4.1,4.1,0,0,1,1.64-1.1,4.74,4.74,0,0,1,2.21.48,4.29,4.29,0,0,0,2.57.44A3.35,3.35,0,0,0,80.1,62v4a3.87,3.87,0,0,1-1.81,1.72,3.77,3.77,0,0,1-2-.42,5.31,5.31,0,0,0-2.74-.52,4.75,4.75,0,0,0-2.12,1.33,4.19,4.19,0,0,1-1.94,1.21,3.89,3.89,0,0,1-2-.71A5,5,0,0,0,65,67.73a4.8,4.8,0,0,0-2.34,1.1,4.17,4.17,0,0,1-2,1,4.14,4.14,0,0,1-2-1,4.8,4.8,0,0,0-2.34-1.1,5,5,0,0,0-2.58.89,3.89,3.89,0,0,1-1.95.71,4.12,4.12,0,0,1-1.93-1.21,4.83,4.83,0,0,0-2.13-1.33,5.35,5.35,0,0,0-2.75.52,3.72,3.72,0,0,1-1.94.42A3.94,3.94,0,0,1,41.25,66ZM64.37,48.37l.07.06c.2.2.4.4.61.59.37.35.72.68,1,1a2.83,2.83,0,0,1,.62,1.1,3.62,3.62,0,0,1-.3,2.57c0,.08-.87,1.86-5,1.67a10.6,10.6,0,0,1,1.1-1.66,10.05,10.05,0,0,0,1.34-2.16A7.14,7.14,0,0,0,64.37,48.37Zm-5,3.36a8.22,8.22,0,0,0,3-6l.36.53.13.19a6,6,0,0,1,0,4.72,9.37,9.37,0,0,1-1.22,1.94,9.53,9.53,0,0,0-1.37,2.26,7.78,7.78,0,0,1-2-.31A3.37,3.37,0,0,1,59.41,51.73Zm-1.76-4.4-.6.55a8.34,8.34,0,0,0-2,3,3.81,3.81,0,0,0,.45,3.33c.2.4,1.44,2.45,5.87,2.22h.67c4.29,0,5.24-2.2,5.28-2.28a4.57,4.57,0,0,0,.34-3.26,4,4,0,0,0-.83-1.47c-.35-.4-.74-.76-1.11-1.11l-.59-.56-.32-.33h.1c8.65.64,15.18,3.26,15.18,6.1,0,3-7.81,6.26-19.43,6.26s-19.42-3.23-19.42-6.26S48.45,47.81,57.65,47.33Zm3,13.44c9.21,0,16.8-2.06,19.43-5v4.56l-.09.12a3.7,3.7,0,0,1-1.72,1.6,3.77,3.77,0,0,1-2-.42,5.31,5.31,0,0,0-2.74-.52,4.66,4.66,0,0,0-2.12,1.33,4.19,4.19,0,0,1-1.94,1.21,4,4,0,0,1-2-.71A5,5,0,0,0,65,62.07a4.8,4.8,0,0,0-2.34,1.1,4.17,4.17,0,0,1-2,1,4.14,4.14,0,0,1-2-1,4.8,4.8,0,0,0-2.34-1.1,4.89,4.89,0,0,0-2.58.89,4,4,0,0,1-1.95.71,4.12,4.12,0,0,1-1.93-1.21,4.74,4.74,0,0,0-2.13-1.33,5.35,5.35,0,0,0-2.75.52,3.72,3.72,0,0,1-1.94.42,8.31,8.31,0,0,1-1.81-1.78v-4.5C43.88,58.71,51.47,60.77,60.67,60.77ZM80.1,69c0,3-7.81,6.26-19.43,6.26S41.25,72,41.25,69V67.66a3.34,3.34,0,0,0,1.54,1,4.29,4.29,0,0,0,2.57-.44,4.61,4.61,0,0,1,2.22-.47,4.1,4.1,0,0,1,1.63,1.09,4.89,4.89,0,0,0,2.49,1.46,4.56,4.56,0,0,0,2.54-.84,4.36,4.36,0,0,1,2-.76,4.22,4.22,0,0,1,1.82.92,4.74,4.74,0,0,0,2.56,1.14,4.74,4.74,0,0,0,2.57-1.14,4.19,4.19,0,0,1,1.83-.92,4.48,4.48,0,0,1,2,.76,4.56,4.56,0,0,0,2.54.84,4.85,4.85,0,0,0,2.49-1.46,4.06,4.06,0,0,1,1.64-1.09,4.6,4.6,0,0,1,2.21.47,4.29,4.29,0,0,0,2.57.44,3.28,3.28,0,0,0,1.54-1Z"/><path class="cls-4" d="M61.37,44.83h0a1.72,1.72,0,0,0,.39,0,1.87,1.87,0,0,0,.53-.2,1.78,1.78,0,0,0,.36-.25A1.93,1.93,0,0,0,62,41a3.81,3.81,0,0,1,.53-1.75.5.5,0,1,0,.14-1,.92.92,0,0,0-.79.26A4.29,4.29,0,0,0,61,41a1.95,1.95,0,0,0,0,3.81A1.47,1.47,0,0,0,61.37,44.83Z"/><path class="cls-3" d="M44.16,104.26a.92.92,0,1,0,.92.92A.92.92,0,0,0,44.16,104.26Z"/><path class="cls-3" d="M80.6,104.26a.92.92,0,1,0,.91.92A.92.92,0,0,0,80.6,104.26Z"/></g></svg>