<?xml version="1.0" encoding="utf-8"?>
<!-- Generator: Adobe Illustrator 25.4.1, SVG Export Plug-In . SVG Version: 6.00 Build 0)  -->
<svg version="1.1" id="Layer_1" xmlns="http://www.w3.org/2000/svg" xmlns:xlink="http://www.w3.org/1999/xlink" x="0px" y="0px"
	 viewBox="0 0 122.36 122.36" style="enable-background:new 0 0 122.36 122.36;" xml:space="preserve">
<style type="text/css">
	.st0{fill:#DC7F8E;}
	.st1{fill:#FFFFFF;}
	.st2{fill:#BC375D;}
	.st3{fill:#9C3653;}
</style>
<g>
	<path class="st0" d="M61.18,122.36C27.44,122.36,0,94.91,0,61.18S27.44,0,61.18,0c33.73,0,61.18,27.44,61.18,61.18
		S94.91,122.36,61.18,122.36z M61.18,2C28.55,2,2,28.55,2,61.18s26.55,59.18,59.18,59.18s59.18-26.55,59.18-59.18S93.81,2,61.18,2z"
		/>
</g>
<g>
	<circle class="st0" cx="61.18" cy="61.18" r="57.08"/>
</g>
<g>
	<path class="st1" d="M51.63,103.91l-1.16,6.05l-1.09-0.21l0.96-4.98l-0.03-0.01l-1.59,0.63l0.19-1l1.69-0.67L51.63,103.91z"/>
	<path class="st1" d="M56.76,104.46c0.44,0.03,0.82,0.16,1.16,0.38c0.35,0.22,0.61,0.57,0.79,1.02c0.19,0.46,0.25,1.04,0.2,1.75
		c-0.05,0.7-0.21,1.28-0.44,1.77c-0.24,0.49-0.56,0.85-0.95,1.08s-0.84,0.33-1.34,0.29c-0.39-0.03-0.73-0.13-1.02-0.3
		c-0.29-0.17-0.53-0.4-0.7-0.67c-0.16-0.27-0.26-0.59-0.28-0.94l1.09,0.09c0.03,0.16,0.09,0.3,0.16,0.44
		c0.09,0.13,0.2,0.23,0.34,0.3s0.3,0.12,0.49,0.13c0.29,0.02,0.54-0.04,0.77-0.2c0.22-0.15,0.4-0.38,0.53-0.69
		c0.13-0.3,0.22-0.67,0.25-1.12h-0.07c-0.11,0.16-0.26,0.3-0.42,0.42c-0.17,0.12-0.36,0.2-0.57,0.25s-0.42,0.07-0.64,0.05
		c-0.36-0.03-0.69-0.14-0.97-0.34s-0.5-0.45-0.64-0.77s-0.21-0.66-0.17-1.04c0.03-0.4,0.15-0.75,0.37-1.06
		c0.22-0.3,0.5-0.53,0.86-0.7C55.91,104.48,56.31,104.43,56.76,104.46z M56.69,105.35c-0.23-0.01-0.44,0.02-0.62,0.11
		s-0.35,0.23-0.47,0.4c-0.12,0.17-0.19,0.37-0.2,0.59c-0.01,0.22,0.02,0.42,0.11,0.61s0.22,0.34,0.39,0.46s0.37,0.19,0.6,0.21
		c0.22,0.02,0.42-0.02,0.62-0.12c0.2-0.1,0.35-0.23,0.47-0.4c0.12-0.17,0.19-0.36,0.21-0.57s-0.02-0.4-0.11-0.6
		c-0.09-0.19-0.22-0.35-0.39-0.47C57.11,105.45,56.92,105.37,56.69,105.35z"/>
	<path class="st1" d="M64.05,110.89c-0.45,0.02-0.85-0.03-1.22-0.17c-0.37-0.14-0.65-0.33-0.86-0.58s-0.33-0.54-0.34-0.88
		c-0.01-0.25,0.03-0.49,0.14-0.72s0.25-0.41,0.45-0.57c0.2-0.15,0.41-0.25,0.65-0.3v-0.04c-0.22-0.03-0.4-0.11-0.58-0.24
		c-0.17-0.12-0.3-0.28-0.4-0.47s-0.15-0.39-0.16-0.61c-0.01-0.32,0.07-0.6,0.23-0.86c0.17-0.26,0.41-0.47,0.73-0.62
		c0.32-0.16,0.67-0.25,1.07-0.26c0.4-0.02,0.76,0.03,1.09,0.16c0.33,0.13,0.59,0.32,0.78,0.56s0.29,0.52,0.32,0.84
		c0.01,0.22-0.03,0.42-0.11,0.62c-0.09,0.2-0.21,0.36-0.36,0.5s-0.34,0.24-0.54,0.29v0.04c0.24,0.03,0.47,0.11,0.67,0.24
		c0.21,0.13,0.38,0.3,0.5,0.52c0.13,0.22,0.2,0.45,0.21,0.71c0.01,0.33-0.08,0.63-0.26,0.9s-0.46,0.49-0.81,0.65
		C64.9,110.78,64.51,110.87,64.05,110.89z M64.02,110.04c0.24-0.01,0.45-0.05,0.62-0.15c0.17-0.09,0.32-0.21,0.4-0.36
		c0.09-0.15,0.13-0.32,0.12-0.5c-0.01-0.2-0.07-0.37-0.17-0.51c-0.11-0.15-0.26-0.26-0.45-0.34c-0.19-0.08-0.39-0.11-0.62-0.1
		s-0.44,0.07-0.61,0.15c-0.17,0.1-0.32,0.23-0.41,0.38c-0.1,0.16-0.14,0.34-0.12,0.52c0,0.19,0.05,0.35,0.16,0.49
		s0.25,0.25,0.44,0.32C63.57,110.02,63.78,110.05,64.02,110.04z M63.88,107.23c0.2-0.01,0.37-0.05,0.52-0.14s0.27-0.2,0.35-0.34
		s0.12-0.29,0.11-0.48c-0.01-0.17-0.05-0.33-0.15-0.46c-0.09-0.13-0.22-0.23-0.37-0.29c-0.15-0.07-0.34-0.1-0.53-0.09
		c-0.2,0.01-0.38,0.05-0.53,0.14c-0.15,0.09-0.27,0.2-0.35,0.33c-0.08,0.14-0.12,0.29-0.11,0.47c0.01,0.17,0.05,0.33,0.15,0.46
		c0.1,0.13,0.22,0.23,0.38,0.3S63.69,107.24,63.88,107.23z"/>
	<path class="st1" d="M71.76,110.1c-0.49,0.09-0.93,0.03-1.32-0.16s-0.72-0.5-0.99-0.95c-0.26-0.44-0.46-0.99-0.57-1.64
		s-0.12-1.23-0.01-1.73s0.32-0.9,0.62-1.21c0.3-0.3,0.7-0.5,1.19-0.58c0.48-0.09,0.93-0.03,1.32,0.15c0.39,0.19,0.72,0.5,0.99,0.94
		c0.26,0.44,0.46,0.98,0.57,1.63c0.11,0.66,0.12,1.24,0.01,1.74s-0.32,0.9-0.62,1.22C72.65,109.82,72.24,110.02,71.76,110.1z
		 M71.6,109.17c0.26-0.04,0.46-0.16,0.62-0.37c0.15-0.2,0.25-0.48,0.29-0.82s0.02-0.76-0.05-1.24c-0.09-0.48-0.2-0.87-0.36-1.19
		c-0.15-0.32-0.34-0.54-0.56-0.67c-0.22-0.14-0.45-0.19-0.7-0.14c-0.25,0.04-0.46,0.16-0.61,0.37c-0.15,0.2-0.25,0.47-0.29,0.82
		s-0.02,0.76,0.05,1.24s0.2,0.87,0.36,1.19c0.15,0.32,0.34,0.54,0.56,0.67C71.11,109.17,71.35,109.23,71.6,109.17z"/>
</g>
<g>
	<path class="st1" d="M24.93,39.37l-7.51-5.3l0.95-1.35l3.18,2.25l2.47-3.5l-3.18-2.25l0.96-1.35l7.51,5.3l-0.96,1.35l-3.2-2.25
		l-2.47,3.5l3.2,2.25L24.93,39.37z"/>
	<path class="st1" d="M31.89,30.56l-1.34,1.16l-3.57-9.07l1.54-1.33l8.47,4.83l-1.33,1.15l-6.65-3.92l-0.05,0.05L31.89,30.56z
		 M29.58,27.79l3.66-3.17l0.87,1l-3.66,3.17L29.58,27.79z"/>
	<path class="st1" d="M33.58,19.13l-0.68-1.21l6.39-3.58l0.68,1.21l-2.47,1.39l3.81,6.8l-1.43,0.8l-3.82-6.8L33.58,19.13z"/>
	<path class="st1" d="M45.81,21.57l-2.71-8.78l5.7-1.76l0.41,1.33l-4.13,1.28l0.74,2.39l3.83-1.19l0.41,1.33l-3.83,1.19l0.75,2.41
		l4.16-1.29l0.41,1.33L45.81,21.57z"/>
	<path class="st1" d="M59.2,18.82l-1.77-0.04l3.46-9.11l2.04,0.05l3.02,9.27l-1.76-0.04l-2.29-7.37h-0.07L59.2,18.82z M59.35,15.22
		l4.84,0.12l-0.03,1.33l-4.84-0.12L59.35,15.22z"/>
	<path class="st1" d="M79.85,16.77c0.07-0.36,0.06-0.7-0.04-1.01s-0.26-0.6-0.5-0.83c-0.24-0.24-0.53-0.43-0.88-0.56
		c-0.48-0.18-0.94-0.22-1.39-0.12s-0.86,0.33-1.24,0.71s-0.69,0.88-0.93,1.52c-0.25,0.64-0.35,1.23-0.33,1.76
		c0.03,0.53,0.18,0.98,0.45,1.35s0.64,0.65,1.11,0.82c0.35,0.13,0.68,0.19,1.02,0.18c0.33-0.02,0.64-0.1,0.92-0.27
		c0.29-0.16,0.52-0.4,0.71-0.7l1.56,0.61c-0.29,0.52-0.68,0.94-1.17,1.27s-1.05,0.52-1.67,0.58c-0.62,0.06-1.26-0.04-1.92-0.29
		c-0.76-0.29-1.37-0.73-1.82-1.31c-0.46-0.58-0.73-1.27-0.81-2.06s0.05-1.64,0.4-2.55c0.34-0.9,0.81-1.62,1.41-2.16
		c0.59-0.54,1.25-0.87,1.98-0.99c0.73-0.13,1.47-0.04,2.23,0.24c0.63,0.24,1.16,0.58,1.58,1.02s0.72,0.95,0.88,1.52
		c0.16,0.58,0.16,1.2,0.01,1.86L79.85,16.77z"/>
	<path class="st1" d="M82.06,24.76l-1.46-1.01l7.89-5.72l1.68,1.16l-2.56,9.41l-1.45-1l2.13-7.42l-0.06-0.04L82.06,24.76z
		 M84.16,21.83l3.99,2.75l-0.75,1.09l-3.99-2.75L84.16,21.83z"/>
	<path class="st1" d="M88.98,29.93l6.83-6.16l1.1,1.22l-3.14,2.83l0.08,0.09l5.55-0.16l1.36,1.5l-5.45,0.12l-1.36,6.06l-1.33-1.48
		l1.09-4.69l-1.59,0.05l-2.03,1.83L88.98,29.93z"/>
	<path class="st1" d="M94.94,37.02l7.98-4.57l2.96,5.18l-1.21,0.69l-2.15-3.75l-2.17,1.24l1.99,3.48l-1.2,0.69l-1.99-3.48
		l-2.19,1.25l2.16,3.78l-1.21,0.69L94.94,37.02z"/>
</g>
<g>
	<path class="st0" d="M61.18,96.73c-19.61,0-35.56-15.95-35.56-35.56s15.95-35.56,35.56-35.56s35.56,15.95,35.56,35.56
		C96.73,80.78,80.78,96.73,61.18,96.73z M61.18,27.62c-18.5,0-33.56,15.05-33.56,33.56s15.05,33.56,33.56,33.56
		s33.56-15.05,33.56-33.56S79.68,27.62,61.18,27.62z"/>
</g>
<g>
	<circle class="st1" cx="61.18" cy="61.18" r="36.25"/>
</g>
<g>
	<path class="st0" d="M61.18,95.51c-18.93,0-34.33-15.4-34.33-34.33s15.4-34.33,34.33-34.33s34.33,15.4,34.33,34.33
		S80.11,95.51,61.18,95.51z M61.18,28.85c-17.83,0-32.33,14.5-32.33,32.33s14.5,32.33,32.33,32.33S93.51,79,93.51,61.18
		S79,28.85,61.18,28.85z"/>
</g>
<g>
	<path class="st1" d="M18.96,58.04c-0.44,0-0.89-0.08-1.29-0.25c-1.02-0.43-1.77-1.21-2.5-1.98c-0.72,0.76-1.48,1.55-2.5,1.98
		c-0.83,0.35-1.83,0.34-2.63-0.03C9.44,57.48,9,57,8.82,56.42c-0.2-0.63-0.09-1.31,0.31-1.91c0.51-0.76,1.41-1.3,2.31-1.37
		c1.39-0.12,2.67,0.53,3.73,1.12c1.06-0.59,2.33-1.24,3.73-1.12c0.9,0.08,1.81,0.62,2.31,1.37c0.4,0.6,0.52,1.28,0.31,1.91
		c-0.19,0.58-0.62,1.06-1.23,1.34C19.89,57.95,19.43,58.04,18.96,58.04z M15.82,55.04l0.03,0.03c0.7,0.74,1.36,1.43,2.21,1.79
		c0.57,0.24,1.28,0.24,1.82-0.01c0.25-0.11,0.57-0.33,0.7-0.74c0.14-0.43-0.03-0.81-0.19-1.05c-0.34-0.51-0.97-0.88-1.57-0.93
		C17.78,54.04,16.72,54.54,15.82,55.04z M11.77,54.12c-0.08,0-0.16,0-0.25,0.01c-0.6,0.05-1.23,0.43-1.57,0.93
		c-0.16,0.25-0.33,0.63-0.19,1.05c0.13,0.4,0.45,0.62,0.7,0.74c0.54,0.25,1.25,0.25,1.82,0.01c0.85-0.36,1.51-1.05,2.21-1.79
		l0.03-0.03C13.7,54.58,12.73,54.12,11.77,54.12z"/>
</g>
<g>
	<path class="st1" d="M11.23,62.92c-0.15,0-0.3-0.07-0.4-0.2c-0.17-0.22-0.12-0.53,0.1-0.7c0.54-0.41,1.04-0.88,1.49-1.4
		c1.24-1.45,2.04-3.26,2.24-5.09c0.03-0.25,0.24-0.44,0.49-0.44c0.27,0.03,0.47,0.19,0.5,0.44c0.31,2.54,1.72,4.97,3.76,6.5
		c0.22,0.17,0.27,0.48,0.1,0.7s-0.48,0.27-0.7,0.1c-1.67-1.25-2.95-3.04-3.65-5.03c-0.43,1.26-1.11,2.45-1.99,3.48
		c-0.5,0.58-1.05,1.1-1.65,1.55C11.44,62.89,11.34,62.92,11.23,62.92z"/>
</g>
<g>
	<path class="st1" d="M104.47,58.04c-0.47,0-0.93-0.09-1.33-0.28c-0.61-0.28-1.05-0.76-1.23-1.34c-0.2-0.63-0.09-1.31,0.31-1.91
		c0.51-0.76,1.41-1.3,2.31-1.37c1.4-0.12,2.68,0.53,3.73,1.12c1.06-0.59,2.33-1.24,3.73-1.12c0.9,0.08,1.81,0.62,2.31,1.37
		c0.4,0.6,0.51,1.28,0.31,1.91c-0.19,0.58-0.62,1.06-1.23,1.34c-0.79,0.36-1.8,0.37-2.63,0.03c-1.02-0.43-1.77-1.21-2.5-1.98
		c-0.72,0.76-1.48,1.55-2.5,1.98C105.36,57.96,104.92,58.04,104.47,58.04z M104.86,54.12c-0.08,0-0.16,0-0.25,0.01
		c-0.6,0.05-1.23,0.43-1.57,0.93c-0.16,0.25-0.33,0.63-0.19,1.05c0.13,0.4,0.45,0.62,0.7,0.74c0.54,0.25,1.25,0.25,1.82,0.01
		c0.85-0.36,1.51-1.05,2.2-1.79l0.04-0.04C106.79,54.58,105.83,54.12,104.86,54.12z M108.91,55.04l0.03,0.03
		c0.7,0.74,1.36,1.44,2.21,1.79c0.57,0.24,1.28,0.24,1.82-0.01c0.25-0.11,0.57-0.33,0.7-0.74c0.14-0.43-0.03-0.81-0.19-1.05
		c-0.34-0.51-0.97-0.88-1.57-0.93C110.88,54.04,109.81,54.54,108.91,55.04z"/>
</g>
<g>
	<path class="st1" d="M104.32,62.92c-0.15,0-0.3-0.07-0.4-0.2c-0.17-0.22-0.12-0.54,0.1-0.7c0.54-0.4,1.04-0.88,1.49-1.4
		c1.24-1.45,2.04-3.26,2.24-5.09c0.03-0.25,0.24-0.44,0.49-0.44l0,0c0.25,0,0.46,0.19,0.5,0.44c0.32,2.54,1.72,4.97,3.76,6.5
		c0.22,0.17,0.27,0.48,0.1,0.7s-0.48,0.27-0.7,0.1c-1.67-1.25-2.95-3.04-3.65-5.03c-0.43,1.26-1.11,2.45-1.99,3.48
		c-0.5,0.58-1.05,1.1-1.65,1.55C104.53,62.89,104.43,62.92,104.32,62.92z"/>
</g>
<g>
	<path class="st0" d="M61.38,56.48c-0.83,0-1.65-0.09-2.45-0.27c-0.98-0.22-1.76-0.54-2.39-0.99c-0.81-0.57-1.37-1.35-1.58-2.19
		c-0.27-1.1,0.04-2.37,0.87-3.59c0.52-0.75,1.16-1.4,1.77-2.03c0.38-0.39,0.76-0.77,1.11-1.18c0.57-0.67,1.07-1.41,1.48-2.2
		c0.03-0.06,0.06-0.13,0.09-0.21c0.14-0.38,0.36-0.95,0.93-1.01c0.47-0.05,0.88,0.27,1.21,0.95c0.65,1.34,1.5,2.58,2.51,3.68
		c0.19,0.21,0.39,0.41,0.58,0.61c0.51,0.53,1.04,1.08,1.48,1.71c0.24,0.35,0.43,0.72,0.58,1.08l0,0c0.29,0.76,0.37,1.49,0.21,2.17
		c-0.19,0.84-0.73,1.61-1.53,2.17c-0.62,0.44-1.38,0.76-2.33,0.98C63.09,56.39,62.24,56.48,61.38,56.48z M61.34,43.89
		c-0.04,0.09-0.09,0.21-0.12,0.29c-0.04,0.12-0.09,0.23-0.13,0.31c-0.44,0.86-0.98,1.67-1.61,2.39c-0.37,0.43-0.76,0.83-1.16,1.23
		c-0.61,0.62-1.19,1.21-1.66,1.89c-0.39,0.56-1,1.68-0.73,2.78c0.15,0.61,0.57,1.19,1.19,1.62c0.52,0.37,1.19,0.64,2.04,0.83
		c1.48,0.33,3.06,0.33,4.54-0.02c0.83-0.19,1.47-0.46,1.98-0.82c0.59-0.42,1-0.98,1.13-1.58c0.11-0.49,0.05-1.02-0.17-1.59l0,0
		c-0.12-0.3-0.27-0.6-0.47-0.88c-0.38-0.57-0.86-1.06-1.37-1.58c-0.2-0.21-0.41-0.42-0.6-0.63c-1.08-1.17-1.98-2.49-2.67-3.92
		C61.45,44.05,61.38,43.95,61.34,43.89z"/>
</g>
<g>
	<path class="st0" d="M57.45,55.64c-0.76-2.16,0.84-4.19,1.61-5.17l0.41-0.51c1.66-2.08,2.76-3.46,1.35-6.42l0.9-0.43
		c1.68,3.53,0.22,5.36-1.47,7.48l-0.4,0.51c-1.06,1.34-1.96,2.78-1.45,4.22L57.45,55.64z"/>
</g>
<g>
	<path class="st0" d="M61.68,55.96l-1-0.09c0.1-1.13,0.53-2.19,1.38-3.43l0.3-0.44c0.47-0.67,0.8-1.16,1.2-1.97
		c0.46-0.93,0.43-2.2-0.08-2.94l0.83-0.56c0.7,1.03,0.76,2.69,0.15,3.94c-0.43,0.87-0.8,1.41-1.28,2.09L62.88,53
		C62.14,54.09,61.76,55,61.68,55.96z"/>
</g>
<g>
	<path class="st0" d="M60.68,60.77c-11.45,0-20.42-3.19-20.42-7.26c0-3.68,7.4-6.7,17.58-7.19h1.12v1h-1.1
		c-9.3,0.45-16.61,3.17-16.61,6.19c0,3.02,7.8,6.26,19.42,6.26s19.42-3.24,19.42-6.26c0-2.84-6.52-5.46-15.17-6.11l-1.07-0.09
		l0.08-1l1.07,0.1c9.47,0.71,16.09,3.63,16.09,7.1C81.1,57.58,72.13,60.77,60.68,60.77z"/>
</g>
<g>
	<path class="st0" d="M60.68,65.6c-0.93,0-1.76-0.58-2.56-1.14c-0.66-0.46-1.27-0.89-1.82-0.92c-0.61-0.02-1.34,0.37-2.04,0.76
		c-0.82,0.46-1.68,0.92-2.54,0.84c-0.97-0.1-1.74-0.79-2.49-1.46c-0.58-0.51-1.13-1-1.63-1.09c-0.65-0.12-1.45,0.19-2.22,0.47
		c-0.87,0.33-1.77,0.67-2.57,0.44c-0.62-0.18-1.34-0.98-2.37-2.17l-0.1-0.12l0.76-0.65l0.1,0.12c0.6,0.7,1.5,1.76,1.88,1.86
		c0.49,0.14,1.19-0.13,1.94-0.41c0.9-0.34,1.82-0.69,2.75-0.52c0.79,0.14,1.47,0.74,2.12,1.33c0.63,0.56,1.29,1.14,1.94,1.21
		c0.55,0.06,1.23-0.32,1.95-0.72c0.83-0.46,1.69-0.93,2.58-0.89c0.84,0.04,1.6,0.58,2.35,1.1c0.67,0.47,1.37,0.96,1.99,0.96
		c0.62,0,1.32-0.49,1.99-0.96c0.74-0.52,1.51-1.06,2.35-1.1c0.89-0.04,1.75,0.43,2.58,0.89c0.72,0.4,1.4,0.77,1.95,0.72
		c0.65-0.07,1.3-0.65,1.94-1.21c0.66-0.58,1.34-1.19,2.12-1.33c0.92-0.17,1.85,0.19,2.75,0.52c0.75,0.28,1.46,0.55,1.94,0.41
		c0.7-0.2,1.21-0.87,1.72-1.59l0.17-0.25l0.83,0.56l-0.18,0.26c-0.6,0.85-1.26,1.7-2.27,1.98c-0.8,0.23-1.7-0.11-2.57-0.44
		c-0.77-0.29-1.57-0.59-2.22-0.48c-0.51,0.09-1.06,0.58-1.63,1.09c-0.75,0.67-1.52,1.36-2.49,1.46c-0.86,0.09-1.71-0.38-2.54-0.84
		c-0.7-0.39-1.46-0.8-2.04-0.76c-0.55,0.03-1.17,0.46-1.82,0.92C62.44,65.02,61.61,65.6,60.68,65.6z"/>
</g>
<g>
	<path class="st0" d="M60.68,71.26c-0.93,0-1.76-0.58-2.56-1.14c-0.66-0.46-1.27-0.89-1.82-0.92c-0.61-0.02-1.34,0.37-2.04,0.76
		c-0.82,0.46-1.68,0.93-2.54,0.84c-0.97-0.1-1.74-0.79-2.49-1.46c-0.58-0.51-1.13-1-1.63-1.09c-0.65-0.11-1.45,0.19-2.22,0.47
		c-0.87,0.33-1.77,0.67-2.57,0.44c-1.11-0.32-1.8-1.3-2.4-2.17c-0.38-0.54-0.73-1.05-1.09-1.24c-0.59-0.31-1.27-0.54-1.92-0.76
		c-1.32-0.45-2.57-0.87-2.57-1.96c0-0.28,0.22-0.5,0.5-0.5s0.5,0.22,0.5,0.5c0,0.38,1,0.72,1.89,1.02c0.66,0.22,1.4,0.47,2.07,0.82
		c0.57,0.3,0.99,0.91,1.44,1.55c0.53,0.77,1.09,1.56,1.85,1.78c0.48,0.14,1.19-0.13,1.94-0.41c0.9-0.34,1.82-0.69,2.75-0.52
		c0.79,0.14,1.47,0.74,2.12,1.33c0.63,0.56,1.29,1.14,1.94,1.21c0.55,0.06,1.23-0.32,1.95-0.72c0.83-0.46,1.69-0.93,2.58-0.89
		c0.84,0.04,1.6,0.58,2.35,1.1c0.67,0.47,1.37,0.96,1.99,0.96s1.32-0.49,1.99-0.96c0.74-0.52,1.51-1.06,2.35-1.1
		c0.89-0.04,1.75,0.43,2.58,0.89c0.72,0.4,1.41,0.78,1.95,0.72c0.65-0.07,1.3-0.65,1.94-1.21c0.66-0.58,1.34-1.19,2.12-1.33
		c0.92-0.17,1.85,0.19,2.75,0.52c0.75,0.28,1.46,0.55,1.94,0.41c0.77-0.22,1.32-1.01,1.86-1.78c0.45-0.64,0.87-1.25,1.44-1.55
		c0.66-0.35,1.41-0.6,2.07-0.82c0.89-0.3,1.89-0.64,1.89-1.02c0-0.28,0.22-0.5,0.5-0.5s0.5,0.22,0.5,0.5c0,1.1-1.25,1.52-2.57,1.96
		c-0.65,0.22-1.33,0.45-1.92,0.76c-0.35,0.19-0.71,0.7-1.09,1.24c-0.6,0.87-1.29,1.85-2.4,2.17c-0.8,0.23-1.7-0.11-2.57-0.44
		c-0.77-0.29-1.57-0.59-2.22-0.48c-0.51,0.09-1.06,0.58-1.63,1.09c-0.75,0.67-1.52,1.36-2.49,1.46c-0.86,0.09-1.72-0.38-2.54-0.84
		c-0.7-0.39-1.44-0.78-2.04-0.76c-0.55,0.03-1.17,0.46-1.82,0.92C62.44,70.68,61.61,71.26,60.68,71.26z"/>
</g>
<g>
	<path class="st0" d="M60.68,76.21c-11.45,0-20.42-3.19-20.42-7.26V53.51h1v15.44c0,3.02,7.8,6.26,19.42,6.26s19.42-3.24,19.42-6.26
		V53.51h1v15.44C81.1,73.02,72.13,76.21,60.68,76.21z"/>
</g>
<g>
	<circle class="st2" cx="61.41" cy="42.88" r="1.95"/>
</g>
<g>
	<path class="st3" d="M61.41,42.76c-0.27,0-0.49-0.21-0.5-0.48c-0.03-0.66,0.38-3.14,2-3.55c0.26-0.07,0.54,0.1,0.61,0.36
		c0.07,0.27-0.1,0.54-0.36,0.61c-0.82,0.21-1.28,1.88-1.25,2.53c0.01,0.28-0.2,0.51-0.48,0.52C61.42,42.76,61.42,42.76,61.41,42.76z
		"/>
</g>
<g>
	<circle class="st1" cx="40.23" cy="104.26" r="0.92"/>
</g>
<g>
	<circle class="st1" cx="81.13" cy="104.26" r="0.92"/>
</g>
</svg>
