<?xml version="1.0" encoding="utf-8"?>
<!-- Generator: Adobe Illustrator 25.4.1, SVG Export Plug-In . SVG Version: 6.00 Build 0)  -->
<svg version="1.1" id="Layer_1" xmlns="http://www.w3.org/2000/svg" xmlns:xlink="http://www.w3.org/1999/xlink" x="0px" y="0px"
	 viewBox="0 0 24 24" style="enable-background:new 0 0 24 24;" xml:space="preserve">
<style type="text/css">
	.st0{fill:#262626;}
</style>
<path class="st0" d="M8.2,21.9c0.2-0.3,0.4-0.6,0.7-0.9c0.5-0.8,0.9-1.6,1.1-2.5c0.2-0.8,0.4-1.6,0.6-2.3c0-0.1,0.1-0.3,0.1-0.4
	c0.2,0.2,0.3,0.4,0.5,0.5c0.6,0.5,1.3,0.7,2.1,0.7c1.1,0,2.1-0.4,2.9-1.1c0.9-0.7,1.5-1.7,1.8-2.8c0.3-0.9,0.5-1.8,0.5-2.7
	c0.1-1.1-0.2-2.3-0.7-3.3c-0.4-0.7-1-1.3-1.6-1.8c-0.7-0.5-1.4-0.8-2.2-1c-1-0.2-2-0.3-3-0.1C9.8,4.3,8.7,4.7,7.7,5.3
	c-0.9,0.6-1.6,1.5-2,2.4C5.3,8.4,5.1,9.1,5,9.9v1.4c0.1,0.6,0.2,1.1,0.4,1.6c0.3,0.7,0.8,1.2,1.5,1.6c0.3,0.1,0.5,0,0.6-0.3
	s0.1-0.5,0.2-0.7c0-0.1,0.1-0.2,0-0.4c0-0.1-0.1-0.2-0.2-0.3c-0.3-0.3-0.4-0.7-0.5-1.1c-0.1-0.6-0.1-1.2,0-1.8
	C7.1,9.2,7.4,8.6,7.7,8c0.4-0.6,0.9-1.1,1.4-1.4c0.6-0.4,1.3-0.6,2-0.7s1.4-0.1,2.1,0.2c0.8,0.2,1.5,0.6,2,1.2
	c0.5,0.5,0.8,1.3,0.8,2c0.1,1.1-0.1,2.3-0.4,3.3c-0.2,0.7-0.6,1.3-1.1,1.8c-0.2,0.3-0.5,0.5-0.9,0.6c-0.3,0.1-0.7,0.2-1,0.1
	c-0.4,0-0.8-0.2-1-0.5s-0.4-0.7-0.4-1.1c0-0.3,0.1-0.6,0.2-0.9c0.2-0.7,0.4-1.4,0.6-2.1c0.1-0.4,0.2-0.9,0.1-1.4
	c0-0.3-0.2-0.7-0.4-0.9C11.5,8.2,11.3,8,11,8s-0.6,0-0.8,0.1c-0.5,0.3-0.8,0.7-1,1.2c-0.4,0.9-0.4,1.9,0,2.9c0,0.1,0,0.1,0,0.2
	c-0.4,1.6-0.7,3.3-1.1,4.9c-0.2,0.8-0.3,1.7-0.3,2.5c0,0.7,0.1,1.3,0.2,2c0,0.1,0,0.1,0.1,0.1H8C8.1,22,8.1,22,8.2,21.9
	C8.1,22,8.1,22,8.2,21.9z"/>
</svg>
