<svg width="24" height="24" viewBox="0 0 24 24" fill="none" xmlns="http://www.w3.org/2000/svg">
<path d="M8.92 11.87C8.92 10.24 10.24 8.91 11.88 8.91C13.51 8.91 14.84 10.23 14.84 11.87C14.84 13.5 13.52 14.83 11.88 14.83C10.24 14.83 8.92 13.51 8.92 11.87ZM7.32 11.87C7.32 14.39 9.36 16.43 11.88 16.43C14.4 16.43 16.44 14.39 16.44 11.87C16.44 9.35 14.4 7.31 11.88 7.31C9.36 7.32 7.32 9.36 7.32 11.87ZM15.54 7.14C15.54 7.73 16.02 8.2 16.6 8.2C17.18 8.2 17.66 7.72 17.66 7.14C17.66 6.55 17.18 6.08 16.6 6.08C16.02 6.08 15.54 6.55 15.54 7.14ZM8.29 19.1C7.42 19.06 6.96 18.92 6.64 18.79C6.23 18.63 5.93 18.44 5.62 18.13C5.31 17.82 5.12 17.52 4.96 17.11C4.84 16.8 4.69 16.33 4.65 15.46C4.61 14.52 4.6 14.24 4.6 11.87C4.6 9.5 4.61 9.22 4.65 8.28C4.69 7.42 4.83 6.95 4.96 6.63C5.12 6.22 5.31 5.92 5.62 5.61C5.93 5.3 6.23 5.11 6.64 4.95C6.95 4.83 7.42 4.68 8.29 4.64C9.22 4.61 9.5 4.6 11.87 4.6C14.24 4.6 14.52 4.61 15.46 4.65C16.32 4.69 16.79 4.83 17.11 4.96C17.52 5.12 17.82 5.31 18.13 5.62C18.44 5.93 18.63 6.23 18.79 6.64C18.91 6.95 19.06 7.42 19.1 8.29C19.14 9.23 19.15 9.51 19.15 11.88C19.15 14.25 19.14 14.53 19.1 15.47C19.06 16.34 18.92 16.81 18.79 17.12C18.63 17.53 18.44 17.83 18.13 18.14C17.82 18.45 17.52 18.64 17.11 18.8C16.8 18.92 16.33 19.07 15.46 19.11C14.52 19.15 14.24 19.16 11.87 19.16C9.5 19.15 9.22 19.14 8.29 19.1ZM8.21 3.05C7.27 3.1 6.63 3.25 6.06 3.47C5.48 3.69 4.98 4 4.49 4.49C4 4.98 3.69 5.48 3.47 6.06C3.25 6.63 3.1 7.27 3.05 8.21C3.01 9.16 3 9.46 3 11.87C3 14.28 3.01 14.58 3.05 15.53C3.09 16.47 3.24 17.12 3.46 17.68C3.69 18.26 3.99 18.76 4.48 19.25C4.97 19.74 5.47 20.05 6.05 20.27C6.61 20.49 7.26 20.64 8.2 20.68C9.15 20.72 9.45 20.73 11.86 20.73C14.27 20.73 14.57 20.72 15.52 20.68C16.46 20.64 17.11 20.49 17.67 20.27C18.25 20.04 18.75 19.74 19.24 19.25C19.73 18.76 20.04 18.26 20.26 17.68C20.48 17.12 20.63 16.47 20.67 15.53C20.71 14.58 20.72 14.28 20.72 11.87C20.72 9.46 20.71 9.16 20.67 8.21C20.63 7.27 20.48 6.62 20.26 6.06C20.03 5.48 19.73 4.98 19.24 4.49C18.75 4 18.25 3.69 17.67 3.47C17.11 3.25 16.46 3.1 15.52 3.06C14.59 3.01 14.28 3 11.87 3C9.46 3 9.16 3.01 8.21 3.05Z" fill="#101010"/>
</svg>
