<svg width="24" height="24" viewBox="0 0 24 24" fill="none" xmlns="http://www.w3.org/2000/svg">
<g clip-path="url(#clip0_105_2675)">
<path d="M10.64 15.79C10.64 15.91 10.58 16.04 10.54 16.17C10.35 16.95 10.16 17.73 9.95997 18.51C9.70992 19.3953 9.32182 20.2356 8.80997 21C8.59997 21.31 8.37998 21.61 8.15998 21.92C8.14405 21.9504 8.11927 21.9753 8.08893 21.9913C8.05858 22.0074 8.02408 22.0139 7.98997 22.01C7.90997 22.01 7.88997 21.92 7.87997 21.85C7.78866 21.1871 7.73857 20.5191 7.72998 19.85C7.73658 19.0003 7.844 18.1544 8.04998 17.33C8.43998 15.69 8.80998 14.04 9.17998 12.4C9.19401 12.3408 9.19401 12.2792 9.17998 12.22C8.82496 11.2963 8.82496 10.2737 9.17998 9.34998C9.34842 8.83728 9.70606 8.40813 10.18 8.14999C10.4295 8.02326 10.7111 7.97366 10.9889 8.0075C11.2667 8.04133 11.5282 8.15707 11.74 8.33998C11.9838 8.5807 12.1359 8.89904 12.17 9.23999C12.2194 9.70802 12.1718 10.1812 12.03 10.63C11.84 11.33 11.63 12.02 11.44 12.71C11.3498 12.9958 11.2927 13.2911 11.27 13.59C11.2524 13.9808 11.3842 14.3637 11.6386 14.6608C11.8931 14.958 12.2511 15.1472 12.64 15.19C12.9864 15.2258 13.3363 15.1792 13.6613 15.0541C13.9862 14.929 14.277 14.7288 14.51 14.47C14.9993 13.9556 15.3652 13.3367 15.58 12.66C15.9527 11.5951 16.1058 10.4657 16.03 9.33998C16.0004 8.55445 15.7116 7.8008 15.2087 7.19661C14.7058 6.59241 14.0171 6.17166 13.25 5.99998C12.5692 5.80267 11.8543 5.75233 11.1526 5.85233C10.4509 5.95232 9.77851 6.20036 9.17998 6.57999C8.60373 6.94494 8.11382 7.43095 7.74428 8.00426C7.37473 8.57758 7.1344 9.22446 7.03998 9.89999C6.91501 10.4901 6.91501 11.0999 7.03998 11.69C7.1294 12.0856 7.31486 12.4531 7.57998 12.76C7.66246 12.846 7.71927 12.9534 7.74401 13.07C7.76874 13.1866 7.76042 13.3078 7.71998 13.42C7.64998 13.66 7.59998 13.91 7.53998 14.16C7.47998 14.41 7.26998 14.57 6.97998 14.44C6.29382 14.1332 5.7478 13.5801 5.44997 12.89C5.13787 12.2301 4.97404 11.5099 4.96998 10.78C4.92996 9.71234 5.16342 8.65218 5.64821 7.70011C6.13299 6.74803 6.85303 5.93563 7.73997 5.33998C8.67328 4.6745 9.76089 4.25805 10.9 4.12999C11.8986 3.97147 12.9188 4.01568 13.9 4.25998C14.7002 4.45554 15.4523 4.81167 16.1107 5.30674C16.7691 5.80182 17.32 6.42552 17.73 7.13998C18.2931 8.14795 18.5502 9.29818 18.47 10.45C18.4294 11.3688 18.2611 12.2775 17.97 13.15C17.6227 14.2304 16.9864 15.1953 16.13 15.94C15.3209 16.6147 14.3035 16.9892 13.25 17C12.4985 17.0331 11.7613 16.7874 11.18 16.31C10.9848 16.1532 10.804 15.9791 10.64 15.79Z" fill="#101010"/>
</g>
<defs>
<clipPath id="clip0_105_2675">
<rect width="13.5" height="18" fill="white" transform="translate(5 4)"/>
</clipPath>
</defs>
</svg>
